<svg width="18" height="18" viewBox="0 0 18 18" fill="none" xmlns="http://www.w3.org/2000/svg">
<path d="M17.31 8.49175e-06H0.749999C0.551087 8.49175e-06 0.360322 0.079026 0.21967 0.219678C0.0790175 0.36033 0 0.551095 0 0.750007V17.25C0 17.4489 0.0790175 17.6397 0.21967 17.7803C0.360322 17.921 0.551087 18 0.749999 18H17.25C17.4489 18 17.6397 17.921 17.7803 17.7803C17.921 17.6397 18 17.4489 18 17.25V0.749999C18.0006 0.561059 17.9299 0.378852 17.8019 0.239804C17.674 0.100756 17.4983 0.0151231 17.31 8.49175e-06ZM16.5 16.5H1.50001V1.50001H16.5V16.5Z" fill="black"/>
<path d="M5.99988 9.78H8.24989V12C8.24989 12.1989 8.32891 12.3897 8.46956 12.5304C8.61021 12.671 8.80098 12.75 8.99989 12.75C9.1988 12.75 9.38957 12.671 9.53022 12.5304C9.67087 12.3897 9.74989 12.1989 9.74989 12V9.78H11.9999C12.1988 9.78 12.3896 9.70098 12.5302 9.56033C12.6709 9.41968 12.7499 9.22892 12.7499 9.03C12.7466 8.90294 12.7104 8.77891 12.6449 8.67C12.5918 8.53983 12.5031 8.42721 12.3891 8.34499C12.2751 8.26277 12.1402 8.21427 11.9999 8.205H9.80991V6C9.80991 5.80109 9.73089 5.61032 9.59024 5.46967C9.44959 5.32902 9.25882 5.25 9.05991 5.25C8.861 5.25 8.67023 5.32902 8.52958 5.46967C8.38893 5.61032 8.30991 5.80109 8.30991 6V8.20498H5.99988C5.90139 8.20498 5.80386 8.22438 5.71286 8.26207C5.62187 8.29976 5.53919 8.355 5.46955 8.42465C5.3999 8.49429 5.34466 8.57697 5.30697 8.66796C5.26928 8.75896 5.24988 8.85649 5.24988 8.95498C5.25316 9.08204 5.28934 9.20607 5.35488 9.31498C5.408 9.44515 5.49664 9.55777 5.61068 9.63999C5.72473 9.72221 5.85959 9.77074 5.99988 9.78Z" fill="black"/>
</svg>
