<svg width="18" height="15" viewBox="0 0 18 15" fill="none" xmlns="http://www.w3.org/2000/svg">
<path d="M1.32278 5.82345C0.591486 5.82345 0 6.41494 0 7.14892C0 7.88021 0.591486 8.47169 1.32278 8.47169C2.05407 8.47169 2.64556 7.88021 2.64556 7.14892C2.64556 6.41762 2.05138 5.82345 1.32278 5.82345ZM1.32278 11.6469C0.591486 11.6469 0 12.2384 0 12.9697C0 13.701 0.591486 14.2951 1.32278 14.2951C2.05407 14.2951 2.64556 13.7037 2.64556 12.9697C2.64556 12.2411 2.05138 11.6469 1.32278 11.6469ZM1.32278 0C0.591486 0 0 0.591486 0 1.32278C0 2.05407 0.591486 2.64556 1.32278 2.64556C2.05407 2.64556 2.64556 2.05407 2.64556 1.32278C2.64556 0.594174 2.05138 0 1.32278 0ZM17.4704 0.529648H5.2938C5.00075 0.529648 4.76415 0.766243 4.76415 1.0593V1.58895C4.76415 1.882 5.00075 2.1186 5.2938 2.1186H17.4704C17.7634 2.1186 18 1.882 18 1.58895V1.0593C18 0.766243 17.7634 0.529648 17.4704 0.529648ZM17.4704 12.1765H5.2938C5.00075 12.1765 4.76415 12.4131 4.76415 12.7062V13.2358C4.76415 13.5289 5.00075 13.7655 5.2938 13.7655H17.4704C17.7634 13.7655 18 13.5289 18 13.2358V12.7062C18 12.4158 17.7634 12.1765 17.4704 12.1765ZM17.4704 6.35579H5.2938C5.00075 6.35579 4.76415 6.59238 4.76415 6.88544V7.41508C4.76415 7.70545 5.00075 7.94473 5.2938 7.94473H17.4704C17.7634 7.94473 18 7.70814 18 7.41508V6.88544C18 6.59238 17.7634 6.35579 17.4704 6.35579Z" fill="#050505"/>
</svg>
