<svg width="129" height="38" viewBox="0 0 129 38" fill="none" xmlns="http://www.w3.org/2000/svg">
<path fill-rule="evenodd" clip-rule="evenodd" d="M92.5767 15.9465C91.4048 17.0746 90.147 17.6922 88.5284 17.5405C86.4174 17.3428 84.872 16.3609 84.1187 14.3628C83.3159 12.2339 83.3007 10.0768 84.3258 7.99739C85.4014 5.81615 87.7611 4.71986 90.1034 5.23647C91.0975 5.45593 91.8141 6.06036 92.568 7.01082C92.411 6.21126 92.7822 6.0415 93.2972 5.92508C94.176 5.72651 95.0478 5.48535 95.9042 5.20503C96.3627 5.05494 96.5187 5.09834 96.5157 5.62265C96.4954 9.32856 96.5524 13.0355 96.4767 16.7402C96.4139 19.8238 94.8391 21.6464 91.824 22.321C90.1418 22.6973 88.4644 22.6358 86.8275 22.0614C85.6493 21.6478 84.7722 20.8791 84.2246 19.7445C84.0354 19.352 84.0522 19.1429 84.5619 19.0291C85.4692 18.8263 86.3594 18.5447 87.25 18.2728C87.5885 18.1691 87.7315 18.2452 87.9185 18.5711C88.5311 19.6366 89.4562 20.0187 90.6565 19.7972C91.623 19.6187 92.249 18.9031 92.437 17.6858C92.5254 17.1124 92.5327 16.5268 92.5767 15.9465ZM92.5834 11.4376C92.5814 9.8977 91.967 8.74928 90.9687 8.41826C89.4988 7.93147 88.2161 8.65983 87.8504 10.1888C87.3524 12.273 88.1161 14.0959 89.5955 14.3519C89.6527 14.3616 89.7116 14.3596 89.7694 14.3652C91.5119 14.5342 92.5857 13.4174 92.5834 11.4376Z" fill="#030303"/>
<path fill-rule="evenodd" clip-rule="evenodd" d="M9.9517 5.05194C9.9517 5.75231 9.9517 6.3819 9.9517 7.03684C10.3111 6.98329 10.3943 6.69709 10.5665 6.5259C12.0976 5.00366 14.7801 4.64526 16.6441 5.72878C17.9402 6.4827 18.4411 7.72726 18.4801 9.10874C18.56 11.9358 18.5099 14.7667 18.5399 17.5958C18.545 18.0629 18.3416 18.1073 17.9657 18.1002C17.0035 18.0813 16.0392 18.0631 15.0786 18.1061C14.5399 18.1298 14.3823 17.97 14.3919 17.4258C14.4253 15.5595 14.4089 13.6925 14.4018 11.8256C14.4 11.3595 14.3785 10.8922 14.3351 10.4283C14.229 9.29899 13.7763 8.71261 12.937 8.58117C11.7238 8.39092 10.777 8.8619 10.3462 9.87909C10.1499 10.3424 10.0951 10.8293 10.0971 11.332C10.1057 13.3736 10.088 15.4157 10.1105 17.4572C10.1156 17.9274 10.0195 18.1276 9.49737 18.1057C8.50735 18.0645 7.51389 18.0744 6.52287 18.1022C6.06285 18.1152 5.92817 17.9584 5.9302 17.5022C5.94642 13.8854 5.94399 10.2683 5.93142 6.65145C5.9302 6.30847 6.01762 6.12247 6.3606 6.03201C7.53641 5.72269 8.70714 5.39351 9.9517 5.05194Z" fill="#030303"/>
<path fill-rule="evenodd" clip-rule="evenodd" d="M42.3299 13.5217C42.5855 14.1916 42.7952 14.7263 42.9938 15.2654C43.5013 16.6418 43.5151 16.6751 42.1577 17.3387C39.6771 18.5516 37.0921 18.9399 34.4713 17.8888C31.6603 16.7609 30.3985 14.4738 30.5887 11.1557C30.7366 8.57892 32.628 6.22345 35.1735 5.44661C38.9366 4.29799 42.465 6.01109 43.4473 9.46366C44.0289 11.5072 43.983 11.5976 41.963 12.1637C39.8623 12.7519 37.7671 13.3629 35.6526 13.8971C34.8849 14.091 35.022 14.3823 35.4031 14.7952C36.1668 15.6234 37.1663 15.7733 38.2129 15.6802C39.8169 15.5366 41.1696 14.8571 42.3299 13.5217ZM34.7042 11.3956C35.9962 11.0382 37.29 10.704 38.5662 10.3135C38.9524 10.1951 39.5869 10.3121 39.6611 9.81739C39.7335 9.33709 39.3256 8.91176 38.962 8.56289C38.7076 8.31869 38.4115 8.14485 38.0705 8.03492C36.1901 7.43049 34.4648 9.13061 34.7042 11.3956Z" fill="#030303"/>
<path fill-rule="evenodd" clip-rule="evenodd" d="M74.0783 7.19476C75.5128 5.49647 77.1717 4.86892 79.1704 5.20602C81.2251 5.55265 82.4674 6.74772 82.5583 8.81922C82.6871 11.7588 82.6177 14.7068 82.6516 17.6508C82.6564 18.0873 82.4293 18.1005 82.1072 18.0975C81.1161 18.0875 80.1235 18.0644 79.1339 18.1058C78.6094 18.1277 78.5173 17.9214 78.5224 17.4549C78.5445 15.5019 78.5357 13.548 78.5282 11.5945C78.5266 11.1879 78.5092 10.7775 78.4526 10.3753C78.2773 9.13178 77.8199 8.63567 76.8277 8.5665C75.5746 8.47929 74.7335 8.99569 74.3877 10.0883C74.2467 10.5335 74.1968 10.9952 74.199 11.4674C74.2094 13.4498 74.1867 15.4327 74.2149 17.415C74.222 17.9247 74.1341 18.1395 73.5589 18.1086C72.5705 18.0553 71.5768 18.0811 70.5858 18.0999C70.2118 18.1072 70.0781 17.9884 70.0794 17.6032C70.0907 13.9293 70.0903 10.2557 70.0796 6.58202C70.0785 6.25749 70.2021 6.1082 70.4945 6.0293C71.533 5.7498 72.5764 5.48409 73.6031 5.16565C74.0676 5.02184 74.0885 5.23421 74.0806 5.5774C74.0704 6.04147 74.0783 6.50555 74.0783 7.19476Z" fill="#030303"/>
<path fill-rule="evenodd" clip-rule="evenodd" d="M50.2071 18.4492C48.7301 18.4618 47.4391 18.2896 46.2357 17.6923C45.1696 17.1629 44.4126 16.3607 44.0646 15.1991C43.9552 14.8346 43.9751 14.6042 44.4307 14.5198C44.9434 14.4251 45.4515 14.2788 45.944 14.1052C46.8117 13.7995 47.4756 13.5422 47.9723 14.7987C48.4327 15.9639 50.591 16.1587 51.5896 15.3346C52.2991 14.749 52.1609 13.8533 51.2687 13.4677C50.2194 13.014 49.0655 12.9365 47.9776 12.6162C47.449 12.4601 46.9089 12.3339 46.3949 12.139C45.1128 11.652 44.3469 10.7545 44.2418 9.34256C44.1272 7.80815 44.7234 6.60922 46.099 5.97538C48.8205 4.72087 51.5648 4.77787 54.2495 6.15914C54.4779 6.27678 54.676 6.4642 54.8673 6.64188C55.3269 7.06924 55.8015 7.61952 55.6975 8.20144C55.6165 8.65558 54.8594 8.53752 54.4192 8.72007C54.0728 8.86327 53.6817 8.89653 53.329 9.02857C52.6698 9.27562 52.1972 9.36426 51.7946 8.52171C51.3957 7.68706 49.4319 7.51282 48.7015 8.10367C48.2343 8.48134 48.2619 9.02919 48.797 9.4176C49.4286 9.8762 50.1913 9.98289 50.9287 10.1439C51.7814 10.3301 52.651 10.4537 53.488 10.6922C54.9547 11.1102 55.9585 12.0501 56.139 13.6054C56.335 15.2922 55.6616 16.6345 54.1736 17.4957C52.9059 18.2294 51.509 18.4817 50.2071 18.4492Z" fill="#030303"/>
<path fill-rule="evenodd" clip-rule="evenodd" d="M18.3215 5.44941C19.634 5.44941 20.8831 5.46564 22.1315 5.44069C22.5625 5.43177 22.6479 5.65326 22.7424 6.00152C23.36 8.27463 24.001 10.5414 24.6354 12.8099C24.7117 13.0833 24.7944 13.3551 24.9376 13.8437C25.4542 12.0341 25.9145 10.4222 26.3739 8.80969C26.3899 8.75432 26.3869 8.69266 26.4053 8.6379C26.7599 7.5986 26.9134 6.49784 27.3694 5.48978C28.5918 5.47619 29.8147 5.46969 31.0369 5.44677C31.8085 5.43237 31.3499 5.90761 31.2779 6.12666C30.2141 9.3547 29.1297 12.5762 28.0428 15.7972C27.7929 16.5385 27.716 17.5099 27.1978 17.9431C26.6317 18.4163 25.6344 18.0701 24.8259 18.0869C24.0718 18.1025 23.1673 18.3066 22.6027 17.9695C22.028 17.6265 22.0303 16.6347 21.7905 15.924C20.7127 12.731 19.6415 9.53542 18.5716 6.33983C18.4808 6.06966 18.4165 5.79056 18.3215 5.44941Z" fill="#030303"/>
<path fill-rule="evenodd" clip-rule="evenodd" d="M61.1976 18.2107C57.834 18.2077 56.8744 17.2716 56.8544 13.9044C56.8339 10.5498 56.8584 7.1948 56.8329 3.84C56.8286 3.31467 56.9588 3.06844 57.4992 2.9512C58.4356 2.74797 59.365 2.49098 60.2733 2.18552C60.9116 1.97072 61.0215 2.19444 60.9919 2.77007C60.9544 3.49722 61.0002 4.22842 60.9759 4.95698C60.9633 5.33303 61.0826 5.47115 61.4673 5.45635C62.1373 5.43079 62.8097 5.46589 63.4798 5.44337C63.8483 5.431 63.9471 5.57156 63.8514 5.90339C63.7948 6.09872 63.7388 6.29445 63.6855 6.49079C63.2482 8.09943 63.2488 8.11789 61.5665 8.16048C61.1126 8.17184 60.9655 8.29029 60.9728 8.75356C60.9988 10.3579 60.9761 11.9623 60.9848 13.5669C60.9919 14.8202 61.284 15.095 62.5504 15.0875C63.9106 15.0794 63.9106 15.0794 63.5449 16.4307C63.0628 18.2123 63.0628 18.2123 61.1976 18.2107Z" fill="#030303"/>
<path fill-rule="evenodd" clip-rule="evenodd" d="M4.43307 1.05957C4.60283 1.30256 4.53671 1.54169 4.53691 1.76622C4.54097 6.95217 4.53063 12.1383 4.55314 17.3241C4.55578 17.9078 4.45436 18.1464 3.80734 18.1101C2.76195 18.0512 1.71007 18.075 0.662053 18.1027C0.190676 18.1151 -0.00201246 18.0026 1.58342e-05 17.4799C0.0182705 12.5852 0.0164451 7.69048 0.000624376 2.79579C-0.000795433 2.395 0.138549 2.22137 0.500194 2.12584C1.81717 1.77738 3.12988 1.41432 4.43307 1.05957Z" fill="#030303"/>
<path fill-rule="evenodd" clip-rule="evenodd" d="M68.6872 11.5562C68.6872 13.5103 68.6681 15.465 68.6996 17.4186C68.7081 17.9543 68.5661 18.132 68.0183 18.107C67.0579 18.0628 66.0932 18.0738 65.1316 18.104C64.6821 18.118 64.5357 17.9971 64.5383 17.5239C64.5584 13.9072 64.5576 10.2906 64.5381 6.67391C64.5359 6.25892 64.6935 6.13113 65.0543 6.04047C66.0693 5.7849 67.0903 5.53766 68.0789 5.19994C68.6673 4.99894 68.6979 5.21861 68.6939 5.69404C68.6779 7.6477 68.6872 9.60217 68.6872 11.5562Z" fill="#030303"/>
<path fill-rule="evenodd" clip-rule="evenodd" d="M118.644 9.78673C118.644 10.1747 118.644 10.5723 118.644 11.1771C119.392 10.2226 120.134 9.60642 121.246 9.59709C122.362 9.58816 123.144 10.0492 123.638 11.0962C124.314 10.1305 125.136 9.54394 126.342 9.59952C127.836 9.66827 128.759 10.4676 128.809 11.9791C128.872 13.8431 128.829 15.711 128.847 17.5772C128.85 17.9204 128.803 18.1157 128.383 18.1064C127.986 18.0979 127.817 18.0074 127.823 17.5669C127.842 15.8177 127.858 14.0668 127.811 12.3185C127.77 10.7709 126.584 10.0305 125.158 10.6035C124.328 10.9372 124.012 11.6459 123.893 12.4548C123.65 14.1074 123.842 15.7737 123.774 17.4322C123.764 17.6746 123.963 18.0504 123.464 18.0969C123.016 18.1387 122.778 18.0595 122.793 17.5072C122.832 16.0501 122.808 14.5916 122.805 13.1334C122.805 12.8424 122.801 12.5499 122.777 12.2598C122.71 11.4654 122.501 10.7469 121.611 10.5096C120.675 10.2599 119.71 10.6743 119.206 11.5161C118.784 12.2209 118.747 13.0127 118.734 13.7989C118.714 15.0234 118.729 16.2485 118.729 17.4732C118.729 17.7886 118.807 18.0928 118.282 18.1129C117.731 18.134 117.749 17.8466 117.751 17.4669C117.758 15.1921 117.777 12.9172 117.74 10.6435C117.728 9.98551 117.968 9.73907 118.644 9.78673Z" fill="#030303"/>
<path fill-rule="evenodd" clip-rule="evenodd" d="M108.872 13.9341C108.859 11.7908 109.881 10.2111 111.574 9.72472C113.276 9.23651 114.998 9.93689 115.79 11.5102C116.567 13.052 116.603 14.6488 115.878 16.2218C115.13 17.8458 113.653 18.5722 111.869 18.2568C110.268 17.9738 109.055 16.5094 108.875 14.6322C108.853 14.4014 108.872 14.1671 108.872 13.9341ZM115.351 14.0016C115.386 13.1329 115.17 12.3281 114.697 11.6031C113.708 10.0886 111.631 10.043 110.574 11.5029C109.612 12.8313 109.616 15.1129 110.583 16.4364C111.601 17.8292 113.588 17.8466 114.608 16.4579C115.14 15.7324 115.367 14.8999 115.351 14.0016Z" fill="#030303"/>
<path fill-rule="evenodd" clip-rule="evenodd" d="M104.379 9.60742C106.075 9.61209 107.162 10.2831 107.587 11.4875C107.668 11.7165 108.023 12.0856 107.456 12.2546C107.073 12.3688 106.84 12.4006 106.631 11.9027C105.895 10.1431 103.825 9.92223 102.634 11.4319C101.607 12.7355 101.592 15.1072 102.598 16.4355C103.171 17.192 103.93 17.5845 104.869 17.4655C105.83 17.3434 106.419 16.6949 106.721 15.8171C106.855 15.428 106.882 15.0913 107.443 15.2712C108.094 15.4796 107.728 15.8716 107.623 16.1663C106.958 18.0322 105.066 18.8411 103.222 18.0721C101.697 17.4361 100.756 15.7355 100.843 13.7677C100.933 11.7061 101.928 10.2409 103.603 9.7419C103.932 9.64353 104.284 9.62304 104.379 9.60742Z" fill="#030303"/>
<path fill-rule="evenodd" clip-rule="evenodd" d="M64.5479 2.64857C64.5479 1.0166 64.5474 1.01478 66.0808 0.582748C66.6131 0.433059 67.1489 0.296147 67.683 0.152341C68.6986 -0.121479 68.7221 -0.12148 68.6921 0.967919C68.671 1.74395 69.0243 2.71226 68.5306 3.24184C68.085 3.72032 67.1475 3.74019 66.4269 3.96249C66.3991 3.97101 66.3723 3.98319 66.3445 3.99089C64.5479 4.49513 64.5479 4.49513 64.5479 2.64857Z" fill="#FEA708"/>
<path fill-rule="evenodd" clip-rule="evenodd" d="M99.731 17.2225C99.756 17.7068 99.8407 18.1103 99.084 18.1255C98.2826 18.1413 98.3836 17.7133 98.3637 17.2101C98.3426 16.6819 98.3716 16.3722 99.0712 16.3712C99.8111 16.3704 99.7762 16.7548 99.731 17.2225Z" fill="#030303"/>
<path d="M39.5452 27.2535V27.9563H36.4985V37.0919H35.7507V27.9563H32.7041V27.2535H39.5452Z" fill="#4C4C4E"/>
<path d="M40.6492 31.4419C41.0647 30.458 41.8356 29.9661 42.9619 29.9661V30.6407C42.3064 30.6407 41.7571 30.8563 41.314 31.2873C40.8708 31.7089 40.6492 32.3414 40.6492 33.1847V37.0919H39.9568V30.0645H40.6492V31.4419Z" fill="#4C4C4E"/>
<path d="M49.3509 30.0645H50.0434V37.0919H49.3509V35.7567C48.8524 36.7499 48.0261 37.2465 46.8721 37.2465C46.0504 37.2465 45.3949 36.9935 44.9056 36.4875C44.4256 35.9722 44.1855 35.2882 44.1855 34.4355V30.0645H44.8918V34.4355C44.8918 35.0914 45.0672 35.6115 45.418 35.9956C45.7781 36.3798 46.2812 36.5719 46.9275 36.5719C47.6384 36.5719 48.22 36.3329 48.6724 35.8551C49.1248 35.3772 49.3509 34.6838 49.3509 33.775V30.0645Z" fill="#4C4C4E"/>
<path d="M52.6531 31.9057C52.6531 32.2524 52.7962 32.5241 53.0824 32.7209C53.3686 32.9176 53.7194 33.0675 54.1349 33.1706C54.5503 33.2643 54.9612 33.3721 55.3674 33.4939C55.7828 33.6157 56.1337 33.8218 56.4199 34.1123C56.7061 34.3934 56.8492 34.7729 56.8492 35.2507C56.8492 35.8316 56.6183 36.3095 56.1567 36.6843C55.7044 37.0591 55.1089 37.2465 54.3703 37.2465C53.7056 37.2465 53.1424 37.1059 52.6808 36.8249C52.2284 36.5344 51.9145 36.1549 51.7391 35.6864L52.3346 35.335C52.4639 35.7192 52.7039 36.0237 53.0547 36.2486C53.4148 36.4641 53.8533 36.5719 54.3703 36.5719C54.8873 36.5719 55.312 36.4594 55.6444 36.2346C55.9859 36.0003 56.1567 35.6724 56.1567 35.2507C56.1567 34.904 56.0136 34.6276 55.7274 34.4215C55.4412 34.2153 55.0904 34.0654 54.675 33.9717C54.2595 33.8687 53.8441 33.7562 53.4286 33.6344C53.0224 33.5126 52.6762 33.3112 52.39 33.0301C52.1038 32.749 51.9607 32.3742 51.9607 31.9057C51.9607 31.3435 52.1777 30.8703 52.6116 30.4861C53.0547 30.102 53.6225 29.9099 54.3149 29.9099C54.8688 29.9099 55.3489 30.0364 55.7551 30.2894C56.1706 30.5424 56.4752 30.8844 56.6691 31.3154L56.0875 31.6527C55.949 31.306 55.7182 31.0436 55.3951 30.8656C55.072 30.6782 54.7119 30.5845 54.3149 30.5845C53.8441 30.5845 53.4471 30.7063 53.124 30.95C52.8101 31.1842 52.6531 31.5028 52.6531 31.9057Z" fill="#4C4C4E"/>
<path d="M61.7996 30.7532H59.7362V35.321C59.7362 35.7239 59.8101 36.0144 59.9578 36.1924C60.1055 36.3704 60.3317 36.4735 60.6363 36.5016C60.941 36.5203 61.3288 36.5063 61.7996 36.4594V37.0919C60.8671 37.2324 60.1701 37.1669 59.7085 36.8951C59.2561 36.6234 59.0299 36.0987 59.0299 35.321V30.7532H57.5066V30.0645H59.0299V28.3077L59.7362 28.0968V30.0645H61.7996V30.7532Z" fill="#4C4C4E"/>
<path d="M66.1577 29.9099C67.1732 29.9099 67.9949 30.2753 68.6227 31.0062C69.2597 31.737 69.5782 32.6037 69.5782 33.6063C69.5782 33.6438 69.5736 33.7 69.5644 33.775C69.5644 33.8499 69.5644 33.9061 69.5644 33.9436H63.2911C63.3742 34.7307 63.6835 35.3678 64.2189 35.8551C64.7636 36.3329 65.433 36.5719 66.2269 36.5719C66.7809 36.5719 67.2656 36.4547 67.681 36.2205C68.0965 35.9863 68.4104 35.677 68.6227 35.2929L69.232 35.6583C68.9458 36.1455 68.5396 36.5344 68.0134 36.8249C67.4871 37.1059 66.887 37.2465 66.2131 37.2465C65.1514 37.2465 64.2789 36.9045 63.5958 36.2205C62.9126 35.5271 62.571 34.6464 62.571 33.5782C62.571 32.5288 62.9033 31.6574 63.5681 30.964C64.242 30.2613 65.1052 29.9099 66.1577 29.9099ZM66.1577 30.5845C65.373 30.5845 64.7175 30.8328 64.1912 31.3294C63.665 31.826 63.365 32.4679 63.2911 33.2549H68.8581C68.7843 32.421 68.4888 31.7698 67.9718 31.3013C67.4641 30.8235 66.8593 30.5845 66.1577 30.5845Z" fill="#4C4C4E"/>
<path d="M77.3037 27.2535H77.9962V37.0919H77.3037V35.4615C77.0175 36.0144 76.6113 36.4501 76.0851 36.7686C75.5681 37.0872 74.9818 37.2465 74.3264 37.2465C73.3293 37.2465 72.4799 36.8951 71.7783 36.1924C71.0859 35.4803 70.7396 34.6089 70.7396 33.5782C70.7396 32.5475 71.0859 31.6808 71.7783 30.9781C72.4799 30.266 73.3293 29.9099 74.3264 29.9099C74.9818 29.9099 75.5681 30.0692 76.0851 30.3878C76.6113 30.7063 77.0175 31.142 77.3037 31.6949V27.2535ZM72.2768 35.7005C72.8492 36.2814 73.5462 36.5719 74.3679 36.5719C75.1896 36.5719 75.882 36.2814 76.4451 35.7005C77.0175 35.1195 77.3037 34.4121 77.3037 33.5782C77.3037 32.7443 77.0175 32.0369 76.4451 31.4559C75.882 30.875 75.1896 30.5845 74.3679 30.5845C73.5462 30.5845 72.8492 30.875 72.2768 31.4559C71.7136 32.0369 71.4321 32.7443 71.4321 33.5782C71.4321 34.4121 71.7136 35.1195 72.2768 35.7005Z" fill="#4C4C4E"/>
<path d="M87.2487 27.2535C88.1165 27.2535 88.8366 27.544 89.409 28.1249C89.9814 28.7059 90.2676 29.432 90.2676 30.3034C90.2676 31.1748 89.9814 31.901 89.409 32.4819C88.8366 33.0535 88.1165 33.3393 87.2487 33.3393H84.6867V37.0919H83.9528V27.2535H87.2487ZM87.2487 32.6365C87.9134 32.6365 88.4581 32.4163 88.8828 31.976C89.3167 31.5356 89.5336 30.9781 89.5336 30.3034C89.5336 29.6194 89.3167 29.0572 88.8828 28.6169C88.4581 28.1765 87.9134 27.9563 87.2487 27.9563H84.6867V32.6365H87.2487Z" fill="#4C4C4E"/>
<path d="M97.4808 30.0645H98.1871V37.0919H97.4808V35.5037C97.1854 36.0472 96.7792 36.4735 96.2622 36.7827C95.7452 37.0919 95.1589 37.2465 94.5034 37.2465C93.5156 37.2465 92.6709 36.8951 91.9692 36.1924C91.2676 35.4803 90.9167 34.6089 90.9167 33.5782C90.9167 32.5475 91.2676 31.6808 91.9692 30.9781C92.6709 30.266 93.5156 29.9099 94.5034 29.9099C95.1589 29.9099 95.7452 30.0645 96.2622 30.3737C96.7792 30.6829 97.1854 31.1092 97.4808 31.6527V30.0645ZM92.4677 35.7005C93.0401 36.2814 93.7372 36.5719 94.5588 36.5719C95.3805 36.5719 96.0729 36.2814 96.6361 35.7005C97.1992 35.1195 97.4808 34.4121 97.4808 33.5782C97.4808 32.7443 97.1992 32.0369 96.6361 31.4559C96.0729 30.875 95.3805 30.5845 94.5588 30.5845C93.7372 30.5845 93.0401 30.875 92.4677 31.4559C91.9046 32.0369 91.623 32.7443 91.623 33.5782C91.623 34.4121 91.9046 35.1195 92.4677 35.7005Z" fill="#4C4C4E"/>
<path d="M101.006 31.4419C101.421 30.458 102.192 29.9661 103.318 29.9661V30.6407C102.663 30.6407 102.114 30.8563 101.67 31.2873C101.227 31.7089 101.006 32.3414 101.006 33.1847V37.0919H100.313V30.0645H101.006V31.4419Z" fill="#4C4C4E"/>
<path d="M108.362 30.7532H106.298V35.321C106.298 35.7239 106.372 36.0144 106.52 36.1924C106.668 36.3704 106.894 36.4735 107.199 36.5016C107.503 36.5203 107.891 36.5063 108.362 36.4594V37.0919C107.429 37.2324 106.732 37.1669 106.271 36.8951C105.818 36.6234 105.592 36.0987 105.592 35.321V30.7532H104.069V30.0645H105.592V28.3077L106.298 28.0968V30.0645H108.362V30.7532Z" fill="#4C4C4E"/>
<path d="M113.195 29.9099C114.016 29.9099 114.667 30.1676 115.147 30.6829C115.636 31.1889 115.881 31.8682 115.881 32.7209V37.0919H115.175V32.7209C115.175 32.065 114.995 31.5449 114.635 31.1608C114.284 30.7766 113.785 30.5845 113.139 30.5845C112.428 30.5845 111.847 30.8235 111.394 31.3013C110.942 31.7792 110.716 32.4726 110.716 33.3814V37.0919H110.023V30.0645H110.716V31.3997C111.214 30.4065 112.041 29.9099 113.195 29.9099Z" fill="#4C4C4E"/>
<path d="M120.956 29.9099C121.971 29.9099 122.793 30.2753 123.421 31.0062C124.058 31.737 124.376 32.6037 124.376 33.6063C124.376 33.6438 124.372 33.7 124.363 33.775C124.363 33.8499 124.363 33.9061 124.363 33.9436H118.089C118.172 34.7307 118.482 35.3678 119.017 35.8551C119.562 36.3329 120.231 36.5719 121.025 36.5719C121.579 36.5719 122.064 36.4547 122.479 36.2205C122.895 35.9863 123.209 35.677 123.421 35.2929L124.03 35.6583C123.744 36.1455 123.338 36.5344 122.812 36.8249C122.285 37.1059 121.685 37.2465 121.011 37.2465C119.95 37.2465 119.077 36.9045 118.394 36.2205C117.711 35.5271 117.369 34.6464 117.369 33.5782C117.369 32.5288 117.702 31.6574 118.366 30.964C119.04 30.2613 119.903 29.9099 120.956 29.9099ZM120.956 30.5845C120.171 30.5845 119.516 30.8328 118.989 31.3294C118.463 31.826 118.163 32.4679 118.089 33.2549H123.656C123.582 32.421 123.287 31.7698 122.77 31.3013C122.262 30.8235 121.658 30.5845 120.956 30.5845Z" fill="#4C4C4E"/>
<path d="M126.687 31.4419C127.103 30.458 127.874 29.9661 129 29.9661V30.6407C128.344 30.6407 127.795 30.8563 127.352 31.2873C126.909 31.7089 126.687 32.3414 126.687 33.1847V37.0919H125.995V30.0645H126.687V31.4419Z" fill="#4C4C4E"/>
</svg>
