<svg xmlns="http://www.w3.org/2000/svg" xmlns:xlink="http://www.w3.org/1999/xlink" viewBox="0,0,256,256" width="64px" height="64px" fill-rule="nonzero"><g fill="none" fill-rule="nonzero" stroke="none" stroke-width="1" stroke-linecap="butt" stroke-linejoin="miter" stroke-miterlimit="10" stroke-dasharray="" stroke-dashoffset="0" font-family="none" font-weight="none" font-size="none" text-anchor="none" style="mix-blend-mode: normal"><g transform="scale(0.5,0.5)"><path d="M7.9,256c0,-137 111.1,-248.1 248.1,-248.1c137,0 248.1,111.1 248.1,248.1c0,137 -111.1,248.1 -248.1,248.1c-137,0 -248.1,-111.1 -248.1,-248.1z" fill-opacity="0.3098" fill="#f5696e"></path><path d="M294.1,258.8l97.1,-112.7c10.6,-12.3 9.2,-30.8 -3.1,-41.4c-12.3,-10.6 -30.8,-9.2 -41.4,3.1l-91.3,106l-91.3,-106c-10.6,-12.3 -29.1,-13.7 -41.4,-3.1c-12.3,10.6 -13.7,29.1 -3.1,41.4l97.1,112.7l-97.1,112.7c-10.6,12.3 -9.2,30.8 3.1,41.4c5.5,4.8 12.4,7.1 19.2,7.1c8.2,0 16.5,-3.5 22.3,-10.2l91.3,-106l91.3,106c5.8,6.7 14,10.2 22.3,10.2c6.8,0 13.6,-2.3 19.2,-7.1c12.3,-10.6 13.7,-29.1 3.1,-41.4z" fill="#bb2423"></path></g></g></svg>