<svg width="8" height="6" viewBox="0 0 8 6" fill="none" xmlns="http://www.w3.org/2000/svg">
<path d="M3.0616 5.77847C3.0268 5.74457 2.878 5.61656 2.7556 5.49732C1.9858 4.79825 0.725798 2.97457 0.341198 2.02007C0.279398 1.87511 0.148598 1.50862 0.140198 1.31281C0.140198 1.12518 0.183398 0.946323 0.270998 0.775645C0.393398 0.562884 0.585998 0.392207 0.813398 0.298685C0.971198 0.23848 1.4434 0.144959 1.4518 0.144959C1.9684 0.0514369 2.8078 0 3.7354 0C4.6192 0 5.4244 0.0514369 5.9488 0.128008C5.9572 0.136775 6.544 0.230297 6.745 0.332586C7.1122 0.520214 7.3402 0.886702 7.3402 1.27891V1.31281C7.3312 1.56824 7.1032 2.10541 7.0948 2.10541C6.7096 3.00848 5.5114 4.79006 4.7152 5.50609C4.7152 5.50609 4.5106 5.70775 4.3828 5.79542C4.1992 5.9322 3.9718 6 3.7444 6C3.4906 6 3.2542 5.92343 3.0616 5.77847Z" fill="#333333"/>
</svg>
    