<svg width="14" height="14" viewBox="0 0 14 14" fill="none" xmlns="http://www.w3.org/2000/svg">
<mask id="path-1-inside-1_826_1721" fill="white">
<rect y="4" width="6" height="6" rx="1"/>
</mask>
<rect y="4" width="6" height="6" rx="1" stroke="black" stroke-width="3" mask="url(#path-1-inside-1_826_1721)"/>
<path d="M2 0.5C2 0.223858 2.22386 0 2.5 0H3.5C3.77614 0 4 0.223858 4 0.5V5H2V0.5Z" fill="black"/>
<path d="M2 10H4V13.5C4 13.7761 3.77614 14 3.5 14H2.5C2.22386 14 2 13.7761 2 13.5V10Z" fill="black"/>
<mask id="path-4-inside-2_826_1721" fill="white">
<rect x="8" y="2" width="6" height="10" rx="1"/>
</mask>
<rect x="8" y="2" width="6" height="10" rx="1" stroke="black" stroke-width="3" mask="url(#path-4-inside-2_826_1721)"/>
<path d="M10 0.5C10 0.223858 10.2239 0 10.5 0H11.5C11.7761 0 12 0.223858 12 0.5V2H10V0.5Z" fill="black"/>
<path d="M10 12H12V13.5C12 13.7761 11.7761 14 11.5 14H10.5C10.2239 14 10 13.7761 10 13.5V12Z" fill="black"/>
</svg>
