<svg width="41" height="40" viewBox="0 0 41 40" fill="none" xmlns="http://www.w3.org/2000/svg">
<path d="M34.6421 5.85783C26.8357 -1.94863 14.1643 -1.94863 6.35786 5.85783C-1.44859 13.6643 -1.44859 26.3356 6.35786 34.1421C14.1643 41.9486 26.8357 41.9486 34.6421 34.1421C42.4486 26.3356 42.4486 13.6643 34.6421 5.85783ZM24.0355 26.4488L15.5503 26.4488C15.126 26.4488 14.7583 26.2791 14.4896 26.0104C14.2209 25.7417 14.0512 25.374 14.0512 24.9497L14.0512 16.4644C14.0535 16.0676 14.2122 15.6876 14.4928 15.407C14.7735 15.1264 15.1534 14.9677 15.5503 14.9654C16.3705 14.9654 17.0493 15.6442 17.0493 16.4644L17.0493 21.3293L24.3891 13.9896C24.9689 13.4097 25.9306 13.4097 26.5104 13.9896C27.0902 14.5694 27.0902 15.5311 26.5104 16.1109L19.1706 23.4506L24.0355 23.4507C24.8558 23.4507 25.5346 24.1295 25.5346 24.9497C25.5346 25.77 24.8558 26.4488 24.0355 26.4488Z" fill="#E42E4A"/>
</svg>
