<svg width="16" height="17" viewBox="0 0 16 17" fill="none" xmlns="http://www.w3.org/2000/svg">
<path d="M8 16.5C6.41775 16.5 4.87103 16.0308 3.55544 15.1518C2.23985 14.2727 1.21447 13.0233 0.608967 11.5615C0.00346627 10.0997 -0.15496 8.49113 0.153721 6.93928C0.462403 5.38743 1.22433 3.96197 2.34315 2.84315C3.46197 1.72433 4.88743 0.962403 6.43928 0.653721C7.99113 0.34504 9.59966 0.503466 11.0615 1.10897C12.5233 1.71447 13.7727 2.73985 14.6518 4.05544C15.5308 5.37103 16 6.91775 16 8.5C16 10.6217 15.1571 12.6566 13.6569 14.1569C12.1566 15.6571 10.1217 16.5 8 16.5ZM8 1.62796C6.6411 1.62796 5.31271 2.03092 4.18282 2.78589C3.05293 3.54086 2.17228 4.61392 1.65225 5.86939C1.13222 7.12486 0.996158 8.50634 1.26127 9.83913C1.52638 11.1719 2.18075 12.3962 3.14165 13.3571C4.10254 14.318 5.32679 14.9723 6.65958 15.2374C7.99238 15.5026 9.37386 15.3665 10.6293 14.8465C11.8848 14.3264 12.9579 13.4458 13.7128 12.3159C14.4678 11.186 14.8708 9.85762 14.8708 8.49871C14.8706 6.67659 14.1466 4.92915 12.8581 3.64077C11.5696 2.3524 9.82213 1.6286 8 1.6286V1.62796Z" fill="black"/>
<path d="M10.5604 7.73517H5.44019C5.29044 7.73517 5.14683 7.67568 5.04094 7.5698C4.93505 7.46391 4.87557 7.3203 4.87557 7.17055C4.87557 7.0208 4.93505 6.87719 5.04094 6.7713C5.14683 6.66541 5.29044 6.60593 5.44019 6.60593H9.38546L8.99081 6.11277C8.94431 6.05498 8.90964 5.9886 8.8888 5.91742C8.86795 5.84623 8.86133 5.77164 8.86931 5.6979C8.88543 5.54897 8.96005 5.41254 9.07676 5.31863C9.19346 5.22471 9.3427 5.18101 9.49163 5.19713C9.64056 5.21325 9.77698 5.28787 9.8709 5.40457L11.0001 6.81645C11.0665 6.89956 11.108 6.9997 11.1199 7.10536C11.1318 7.21101 11.1136 7.31788 11.0675 7.41367C11.0213 7.50945 10.9491 7.59027 10.859 7.6468C10.769 7.70334 10.6648 7.7333 10.5585 7.73324L10.5604 7.73517ZM6.56879 11.8066C6.48394 11.8067 6.40017 11.7876 6.32371 11.7508C6.24725 11.714 6.18006 11.6605 6.12713 11.5942L4.99789 10.1823C4.93164 10.0993 4.89016 9.99925 4.87819 9.89371C4.86623 9.78818 4.88428 9.68141 4.93027 9.58566C4.97626 9.48992 5.04832 9.40909 5.13818 9.35246C5.22803 9.29583 5.33204 9.26569 5.43826 9.26551H10.5585C10.7082 9.26551 10.8518 9.325 10.9577 9.43088C11.0636 9.53677 11.1231 9.68039 11.1231 9.83013C11.1231 9.97988 11.0636 10.1235 10.9577 10.2294C10.8518 10.3353 10.7082 10.3948 10.5585 10.3948H6.6145L7.00916 10.8879C7.07559 10.9709 7.11724 11.071 7.12931 11.1767C7.14137 11.2823 7.12336 11.3892 7.07735 11.4851C7.03134 11.5809 6.9592 11.6618 6.86923 11.7185C6.77926 11.7752 6.67512 11.8053 6.56879 11.8053V11.8066Z" fill="black"/>
</svg>
