<svg width="24" height="24" viewBox="0 0 24 24" fill="none" xmlns="http://www.w3.org/2000/svg">
<g id="outline-buy-crypto 1">
<path id="Vector" d="M16.24 14.5C16.065 14.5 15.867 14.49 15.68 14.48C15.4999 14.4683 15.33 14.3921 15.2014 14.2654C15.0729 14.1387 14.9943 13.9699 14.98 13.79C14.864 12.4312 14.2715 11.1571 13.3072 10.1928C12.3429 9.22852 11.0688 8.63603 9.71001 8.52C9.53007 8.50571 9.3613 8.4271 9.23459 8.29855C9.10787 8.17 9.0317 8.00012 9.02001 7.82C9.00854 7.63353 9.00187 7.4468 9.00001 7.26C8.99803 5.82523 9.42181 4.42214 10.2177 3.22835C11.0136 2.03457 12.1458 1.10376 13.4709 0.55379C14.7961 0.00381595 16.2547 -0.140601 17.662 0.138823C19.0692 0.418247 20.362 1.10895 21.3765 2.12348C22.3911 3.13801 23.0818 4.43076 23.3612 5.83805C23.6406 7.24534 23.4962 8.7039 22.9462 10.0291C22.3962 11.3542 21.4654 12.4864 20.2717 13.2823C19.0779 14.0782 17.6748 14.502 16.24 14.5Z" fill="#292D32"/>
<path id="Vector_2" d="M8.5 22.75C6.57718 22.75 4.73311 21.9862 3.37348 20.6265C2.01384 19.2669 1.25 17.4228 1.25 15.5C1.25 13.5772 2.01384 11.7331 3.37348 10.3735C4.73311 9.01384 6.57718 8.25 8.5 8.25C8.675 8.25 8.873 8.26 9.06 8.27C10.7762 8.41469 12.386 9.16151 13.6047 10.3784C14.8235 11.5954 15.5727 13.204 15.72 14.92C15.73 15.12 15.74 15.32 15.74 15.501C15.7412 16.4525 15.5548 17.395 15.1915 18.2744C14.8282 19.1538 14.2951 19.953 13.6226 20.6263C12.9502 21.2995 12.1517 21.8336 11.2727 22.198C10.3937 22.5624 9.45153 22.75 8.5 22.75Z" fill="#BE1E2D"/>
<path id="Vector_3" d="M8.49991 18.75C8.36517 18.7495 8.23298 18.7131 8.11697 18.6446C8.00097 18.576 7.90533 18.4778 7.83991 18.36L7.05991 16.94L5.63991 16.16C5.52194 16.0948 5.42359 15.9992 5.3551 15.8832C5.28661 15.7671 5.25049 15.6348 5.25049 15.5C5.25049 15.3652 5.28661 15.2329 5.3551 15.1168C5.42359 15.0008 5.52194 14.9052 5.63991 14.84L7.05991 14.06L7.83991 12.64C7.90684 12.5266 8.00308 12.4333 8.11851 12.37C8.23395 12.3066 8.36431 12.2756 8.49591 12.28C8.62852 12.276 8.75983 12.3072 8.87646 12.3705C8.9931 12.4337 9.0909 12.5267 9.15991 12.64L9.93991 14.06L11.3599 14.839C11.4779 14.9042 11.5762 14.9998 11.6447 15.1158C11.7132 15.2319 11.7493 15.3642 11.7493 15.499C11.7493 15.6338 11.7132 15.7661 11.6447 15.8822C11.5762 15.9982 11.4779 16.0938 11.3599 16.159L9.93991 16.939L9.15991 18.36C9.09449 18.4778 8.99886 18.576 8.88285 18.6446C8.76684 18.7131 8.63466 18.7495 8.49991 18.75ZM8.49991 14.56L8.26991 14.97C8.20187 15.0975 8.09744 15.202 7.96991 15.27L7.56091 15.5L7.96991 15.729C8.09752 15.7969 8.20196 15.9014 8.26991 16.029L8.49991 16.438L8.72991 16.029C8.79766 15.9013 8.90216 15.7968 9.02991 15.729L9.43991 15.499L9.02991 15.269C8.90223 15.2012 8.79776 15.0967 8.72991 14.969L8.49991 14.56Z" fill="white"/>
</g>
</svg>
