<svg width="20" height="20" viewBox="0 0 20 20" fill="none" xmlns="http://www.w3.org/2000/svg">
<g clip-path="url(#clip0_242_18257)">
<path d="M17.1537 19.1662H7.33123C6.78919 19.1662 6.26935 18.9509 5.88608 18.5676C5.5028 18.1843 5.28748 17.6645 5.28748 17.1225V7.33123C5.28748 6.20248 6.20248 5.28748 7.33123 5.28748H17.1537C18.2825 5.28748 19.1975 6.20248 19.1975 7.33123V17.1537C19.1662 18.2512 18.2512 19.1662 17.1537 19.1662ZM7.33123 7.11623C7.30286 7.11553 7.27465 7.12063 7.24832 7.13121C7.22199 7.14178 7.1981 7.15761 7.17809 7.17774C7.15809 7.19786 7.14239 7.22185 7.13197 7.24824C7.12155 7.27463 7.11662 7.30286 7.11748 7.33123V17.1537C7.11748 17.275 7.20873 17.3662 7.32998 17.3662H17.1537C17.275 17.3662 17.3662 17.275 17.3662 17.1537V7.33123C17.3669 7.30308 17.3619 7.27508 17.3515 7.24892C17.341 7.22276 17.3254 7.19898 17.3056 7.17902C17.2857 7.15905 17.262 7.1433 17.2359 7.13272C17.2098 7.12215 17.1819 7.11696 17.1537 7.11748H7.33123V7.11623Z" fill="#9399A4"/>
<path d="M3.76249 14.7125H2.87749C2.33545 14.7125 1.81562 14.4972 1.43234 14.1139C1.04906 13.7306 0.83374 13.2108 0.83374 12.6687V2.87749C0.83374 1.74874 1.74874 0.83374 2.87749 0.83374H12.7C13.8287 0.83374 14.7437 1.74874 14.7437 2.87749V3.85249C14.7461 3.97336 14.7241 4.09347 14.679 4.20562C14.6338 4.31778 14.5665 4.41968 14.4811 4.50522C14.3957 4.59076 14.2939 4.65819 14.1818 4.70347C14.0697 4.74875 13.9496 4.77095 13.8287 4.76874C13.708 4.77077 13.5881 4.74849 13.4762 4.70322C13.3643 4.65796 13.2626 4.59064 13.1772 4.50526C13.0918 4.41989 13.0245 4.31821 12.9793 4.20628C12.934 4.09435 12.9117 3.97446 12.9137 3.85374V2.87749C12.9144 2.84923 12.9094 2.82113 12.8989 2.79489C12.8884 2.76864 12.8726 2.74481 12.8527 2.72482C12.8327 2.70483 12.8088 2.68911 12.7826 2.67861C12.7563 2.66812 12.7282 2.66305 12.7 2.66374H2.87749C2.84934 2.66306 2.82134 2.66808 2.79519 2.67851C2.76903 2.68893 2.74525 2.70454 2.72528 2.72439C2.70531 2.74424 2.68957 2.76793 2.67899 2.79402C2.66841 2.82012 2.66323 2.84809 2.66374 2.87624V12.7C2.66374 12.8212 2.75499 12.9125 2.87624 12.9125H3.76124C3.88207 12.9105 4.00206 12.9328 4.11408 12.9781C4.22609 13.0235 4.32783 13.0909 4.41322 13.1764C4.49861 13.2619 4.56591 13.3637 4.6111 13.4758C4.65628 13.5879 4.67844 13.7079 4.67624 13.8287C4.67624 14.3462 4.24999 14.7125 3.76124 14.7125H3.76249Z" fill="#9399A4"/>
</g>
<defs>
<clipPath id="clip0_242_18257">
<rect width="20" height="20" fill="white"/>
</clipPath>
</defs>
</svg>
