<svg width="19" height="22" viewBox="0 0 19 22" fill="none" xmlns="http://www.w3.org/2000/svg">
<path d="M13.0251 4.6232C13.088 4.52295 13.1702 4.43619 13.2669 4.36794C13.3636 4.2997 13.4729 4.25134 13.5884 4.22567C13.704 4.19999 13.8235 4.19751 13.94 4.21838C14.0565 4.23924 14.1677 4.28303 14.2671 4.3472C15.8056 5.32165 17.0238 6.72659 17.7706 8.38753C18.5174 10.0485 18.7598 11.8922 18.4676 13.6897C18.1755 15.4872 17.3617 17.1593 16.1274 18.4982C14.893 19.8372 13.2925 20.784 11.5247 21.2211C9.7568 21.6582 7.89948 21.5662 6.18342 20.9567C4.46735 20.3472 2.96815 19.247 1.87204 17.7927C0.775936 16.3385 0.131224 14.5942 0.0179884 12.7766C-0.0952474 10.9591 0.327983 9.14829 1.23511 7.5692C1.97153 6.28834 2.99928 5.19893 4.23511 4.3892C4.43561 4.25951 4.67942 4.21478 4.91291 4.26485C5.14639 4.31493 5.35042 4.4557 5.48011 4.6562C5.6098 4.85671 5.65453 5.10052 5.60446 5.334C5.55438 5.56748 5.41361 5.77151 5.21311 5.9012C4.20759 6.55217 3.37071 7.43223 2.77111 8.4692C2.03914 9.74375 1.6978 11.2053 1.78949 12.6722C1.88119 14.1391 2.40188 15.5468 3.28687 16.7202C4.17186 17.8937 5.38214 18.7813 6.76734 19.2727C8.15254 19.7641 9.65159 19.8377 11.0783 19.4843C12.5049 19.1309 13.7963 18.366 14.7919 17.2849C15.7876 16.2037 16.4436 14.8538 16.6785 13.4029C16.9134 11.952 16.7168 10.4641 16.1131 9.12399C15.5095 7.78389 14.5254 6.6507 13.2831 5.8652C13.0848 5.73418 12.9464 5.53006 12.8981 5.29738C12.8498 5.0647 12.8954 4.82235 13.0251 4.6232ZM9.59911 0.507202C9.7173 0.507202 9.83433 0.530481 9.94352 0.575711C10.0527 0.62094 10.1519 0.687233 10.2355 0.770806C10.3191 0.854379 10.3854 0.953594 10.4306 1.06279C10.4758 1.17198 10.4991 1.28901 10.4991 1.4072V8.6072C10.4991 8.8459 10.4043 9.07482 10.2355 9.2436C10.0667 9.41238 9.8378 9.5072 9.59911 9.5072C9.36041 9.5072 9.1315 9.41238 8.96271 9.2436C8.79393 9.07482 8.69911 8.8459 8.69911 8.6072V1.4072C8.69911 1.28901 8.72239 1.17198 8.76762 1.06279C8.81285 0.953594 8.87914 0.854379 8.96271 0.770806C9.04628 0.687233 9.1455 0.62094 9.25469 0.575711C9.36389 0.530481 9.48092 0.507202 9.59911 0.507202Z" fill="black"/>
</svg>
