<svg width="18" height="20" viewBox="0 0 18 20" fill="none" xmlns="http://www.w3.org/2000/svg">
<path d="M9 0C10.7 0 12.2767 0.196 13.6922 0.52325C14.1905 0.63825 14.6342 0.7625 15.0185 0.887C15.2365 0.95775 15.396 1.01525 15.493 1.05375C16.4937 1.39625 17.25 2.5025 17.25 3.59275V12.617C17.25 13.6342 16.661 14.8557 15.871 15.4555L10.536 19.5057C9.669 20.164 8.33275 20.1655 7.464 19.5057L2.129 15.4555C1.3425 14.8582 0.75 13.6307 0.75 12.617V3.59275C0.75 2.49525 1.504 1.3845 2.5115 1.052C2.609 1.0135 2.767 0.9565 2.9815 0.887C3.41818 0.746847 3.86067 0.625486 4.30775 0.52325C5.72325 0.19575 7.3 0 9 0ZM9 1.5C7.419 1.5 5.95475 1.682 4.64575 1.98475C4.1905 2.08975 3.78825 2.20225 3.444 2.314C3.3255 2.35225 3.22325 2.38775 3.138 2.419C3.08975 2.4365 3.0595 2.44825 3.048 2.453C3.02888 2.46071 3.00944 2.46764 2.98975 2.47375C2.613 2.59175 2.25 3.12125 2.25 3.59275V12.617C2.25 13.1678 2.628 13.951 3.036 14.2607L8.371 18.311C8.70325 18.5635 9.2975 18.5627 9.629 18.311L14.964 14.2607C15.375 13.9485 15.75 13.1713 15.75 12.617V3.59275C15.75 3.12775 15.3837 2.5965 15 2.4705L14.952 2.453C14.9222 2.44124 14.8922 2.4299 14.862 2.419C14.7767 2.38775 14.6745 2.35225 14.556 2.314C14.1603 2.18714 13.7594 2.07729 13.3542 1.98475C12.0452 1.682 10.581 1.5 9 1.5ZM12.2192 5.97C12.3598 5.82924 12.5505 5.75008 12.7495 5.74994C12.9484 5.7498 13.1392 5.82868 13.28 5.96925C13.4208 6.10981 13.4999 6.30054 13.5001 6.49947C13.5002 6.6984 13.4213 6.88924 13.2808 7.03L8.28825 12.03C8.14782 12.1706 7.95731 12.2498 7.75856 12.2501C7.55981 12.2504 7.36907 12.1718 7.22825 12.0315L4.72075 9.53425C4.65006 9.46495 4.5938 9.38234 4.55519 9.29119C4.51659 9.20004 4.49641 9.10215 4.49582 9.00316C4.49523 8.90417 4.51424 8.80605 4.55176 8.71444C4.58928 8.62284 4.64456 8.53957 4.71441 8.46943C4.78427 8.39929 4.86732 8.34368 4.95877 8.30579C5.05022 8.26791 5.14827 8.24851 5.24726 8.2487C5.34625 8.24889 5.44422 8.26868 5.53553 8.30692C5.62683 8.34516 5.70967 8.40109 5.77925 8.4715L7.756 10.44L12.2192 5.97Z" fill="#9399A4"/>
</svg>
