<svg width="24" height="24" viewBox="0 0 24 24" fill="none" xmlns="http://www.w3.org/2000/svg">
<path fill-rule="evenodd" clip-rule="evenodd" d="M12.2502 9.56238C10.6278 9.56238 9.31262 10.8776 9.31262 12.4999C9.31262 14.1223 10.6278 15.4375 12.2502 15.4375C13.8725 15.4375 15.1877 14.1223 15.1877 12.4999C15.1877 10.8776 13.8725 9.56238 12.2502 9.56238ZM7.81262 12.4999C7.81262 10.0491 9.79938 8.06238 12.2502 8.06238C14.701 8.06238 16.6877 10.0491 16.6877 12.4999C16.6877 14.9507 14.701 16.9375 12.2502 16.9375C9.79938 16.9375 7.81262 14.9507 7.81262 12.4999Z" fill="#9399A4"/>
<path fill-rule="evenodd" clip-rule="evenodd" d="M9.90082 2.34668L12.2506 4.19554L14.6004 2.34668L19.8696 5.38885L19.4434 8.34813L22.2177 9.45799V15.5424L19.4424 16.6526L19.8686 19.6113L14.5994 22.6535L12.2506 20.8055L9.90191 22.6535L4.63272 19.6113L5.0588 16.6531L2.28223 15.5424V9.45799L5.0578 8.34762L4.63163 5.38885L9.90082 2.34668ZM6.26109 6.18013L6.71073 9.30195L3.78223 10.4735V14.5269L6.71173 15.6988L6.26217 18.8201L9.77245 20.8467L12.2506 18.8968L14.7288 20.8467L18.2391 18.8201L17.7895 15.6983L20.7177 14.5269V10.4735L17.7905 9.30246L18.2402 6.18013L14.7299 4.15347L12.2506 6.10419L9.77137 4.15347L6.26109 6.18013Z" fill="#9399A4"/>
</svg>
