<svg width="24" height="24" viewBox="0 0 24 24" fill="none" xmlns="http://www.w3.org/2000/svg">
<g id="Iconsax/TwoTone/favoritechart">
<path id="Vector" d="M22 13V9C22 4 20 2 15 2H9C4 2 2 4 2 9V15C2 20 4 22 9 22H13" stroke="black" stroke-width="1.5" stroke-linecap="round" stroke-linejoin="round"/>
<path id="Vector_2" opacity="0.8" d="M7.32996 14.4922L9.70996 11.4022C10.05 10.9622 10.68 10.8822 11.12 11.2222L12.95 12.6622C13.39 13.0022 14.02 12.9222 14.36 12.4922L16.67 9.51221" stroke="#BE1E2D" stroke-width="1.5" stroke-linecap="round" stroke-linejoin="round"/>
<path id="Vector_3" d="M19.48 15.8209L19.76 16.3909C19.9 16.6709 20.25 16.9309 20.56 16.9909L20.94 17.0509C22.08 17.2409 22.35 18.0809 21.53 18.9109L21.18 19.2609C20.95 19.5009 20.82 19.9609 20.89 20.2809L20.94 20.4909C21.25 21.8709 20.52 22.4009 19.32 21.6809L19.06 21.5309C18.75 21.3509 18.25 21.3509 17.94 21.5309L17.68 21.6809C16.47 22.4109 15.74 21.8709 16.06 20.4909L16.11 20.2809C16.18 19.9609 16.05 19.5009 15.82 19.2609L15.47 18.9109C14.65 18.0809 14.92 17.2409 16.06 17.0509L16.44 16.9909C16.74 16.9409 17.1 16.6709 17.24 16.3909L17.52 15.8209C18.06 14.7309 18.94 14.7309 19.48 15.8209Z" stroke="black" stroke-width="1.5" stroke-linecap="round" stroke-linejoin="round"/>
</g>
</svg>
