<svg width="49" height="48" viewBox="0 0 49 48" fill="none" xmlns="http://www.w3.org/2000/svg">
<g id="Iconsax/Bold/arrangehorizontalcircle">
<path id="Vector" d="M24.5 4C13.46 4 4.5 12.96 4.5 24C4.5 35.04 13.46 44 24.5 44C35.54 44 44.5 35.04 44.5 24C44.5 12.96 35.54 4 24.5 4ZM36.2 28.2C36.12 28.38 36.02 28.54 35.88 28.68L29.8 34.76C29.5 35.06 29.12 35.2 28.74 35.2C28.36 35.2 27.98 35.06 27.68 34.76C27.401 34.4777 27.2446 34.0969 27.2446 33.7C27.2446 33.3031 27.401 32.9223 27.68 32.64L31.2 29.12H14.2C13.38 29.12 12.7 28.44 12.7 27.62C12.7 26.8 13.38 26.12 14.2 26.12H34.82C35.02 26.12 35.2 26.16 35.4 26.24C35.76 26.4 36.06 26.68 36.22 27.06C36.34 27.42 36.34 27.84 36.2 28.2ZM34.8 21.86H14.2C14 21.86 13.8 21.82 13.62 21.74C13.2517 21.5818 12.9582 21.2883 12.8 20.92C12.7209 20.7404 12.68 20.5463 12.68 20.35C12.68 20.1537 12.7209 19.9596 12.8 19.78C12.88 19.6 12.98 19.44 13.12 19.3L19.2 13.22C19.78 12.64 20.74 12.64 21.32 13.22C21.9 13.8 21.9 14.76 21.32 15.34L17.82 18.86H34.82C35.64 18.86 36.32 19.54 36.32 20.36C36.32 21.18 35.64 21.86 34.8 21.86Z" fill="#BE1E2D"/>
</g>
</svg>
