<svg width="21" height="20" viewBox="0 0 21 20" fill="none" xmlns="http://www.w3.org/2000/svg">
<g id="up-down 1">
<rect id="Rectangle 1144" x="0.5" width="20" height="20" rx="6" fill="#F1F1F1"/>
<path id="Vector" fill-rule="evenodd" clip-rule="evenodd" d="M13.9918 12.5277V5.01279C13.9918 4.74418 13.8851 4.48657 13.6952 4.29664C13.5052 4.1067 13.2476 4 12.979 4C12.7104 4 12.4528 4.1067 12.2629 4.29664C12.0729 4.48657 11.9662 4.74418 11.9662 5.01279V14.9872C11.9662 15.9602 13.1994 16.3631 13.7833 15.6008L16.7116 12.6725C16.9011 12.4825 17.0074 12.225 17.0072 11.9567C17.007 11.6883 16.9003 11.431 16.7106 11.2413C16.5208 11.0515 16.2635 10.9448 15.9951 10.9446C15.7268 10.9444 15.4693 11.0507 15.2793 11.2402L13.9918 12.5277ZM9.54102 14.9872V5.01279C9.54102 4.03979 8.30781 3.63687 7.72391 4.39925L4.79559 7.32749C4.60612 7.51752 4.4998 7.77498 4.5 8.04333C4.5002 8.31168 4.60689 8.56898 4.79664 8.75873C4.98639 8.94849 5.24369 9.05517 5.51204 9.05537C5.78039 9.05557 6.03785 8.94926 6.22788 8.75978L7.51539 7.47227V14.9872C7.51539 15.2558 7.62209 15.5134 7.81203 15.7034C8.00196 15.8933 8.25957 16 8.52818 16C8.79678 16 9.05439 15.8933 9.24432 15.7034C9.43426 15.5134 9.54102 15.2558 9.54102 14.9872Z" fill="black"/>
</g>
</svg>
