<svg width="48" height="48" viewBox="0 0 48 48" fill="none" xmlns="http://www.w3.org/2000/svg">
<g id="Iconsax/Bold/arrowcircledown2" clip-path="url(#clip0_45_1169)">
<path id="Vector" d="M38.1421 9.85796C30.3357 2.0515 17.6643 2.0515 9.85786 9.85796C2.05141 17.6644 2.05141 30.3358 9.85786 38.1422C17.6643 45.9487 30.3357 45.9487 38.1421 38.1422C45.9486 30.3358 45.9486 17.6644 38.1421 9.85796ZM27.5355 30.4489L19.0503 30.4489C18.626 30.4489 18.2583 30.2792 17.9896 30.0105C17.7209 29.7418 17.5512 29.3741 17.5512 28.9498L17.5512 20.4646C17.5535 20.0677 17.7122 19.6878 17.9928 19.4071C18.2735 19.1265 18.6534 18.9678 19.0503 18.9655C19.8705 18.9655 20.5493 19.6443 20.5493 20.4646L20.5493 25.3295L27.8891 17.9897C28.4689 17.4099 29.4306 17.4099 30.0104 17.9897C30.5902 18.5695 30.5902 19.5312 30.0104 20.111L22.6706 27.4508L27.5355 27.4508C28.3558 27.4508 29.0346 28.1296 29.0346 28.9498C29.0346 29.7701 28.3558 30.4489 27.5355 30.4489Z" fill="#BE1E2D"/>
</g>
<defs>
<clipPath id="clip0_45_1169">
<rect width="48" height="48" fill="white"/>
</clipPath>
</defs>
</svg>
