<svg width="49" height="48" viewBox="0 0 49 48" fill="none" xmlns="http://www.w3.org/2000/svg">
<g id="Iconsax/Bold/arrowcircledown2" clip-path="url(#clip0_45_1173)">
<path id="Vector" d="M10.3579 38.142C18.1643 45.9485 30.8357 45.9485 38.6421 38.142C46.4486 30.3356 46.4486 17.6642 38.6421 9.85777C30.8357 2.05131 18.1643 2.05131 10.3579 9.85777C2.55141 17.6642 2.55141 30.3356 10.3579 38.142ZM20.9645 17.5511L29.4497 17.5511C29.874 17.5511 30.2417 17.7208 30.5104 17.9895C30.7791 18.2582 30.9488 18.6259 30.9488 19.0502L30.9488 27.5354C30.9465 27.9323 30.7878 28.3122 30.5072 28.5929C30.2265 28.8735 29.8466 29.0322 29.4497 29.0345C28.6295 29.0345 27.9507 28.3557 27.9507 27.5354L27.9507 22.6705L20.6109 30.0103C20.0311 30.5901 19.0694 30.5901 18.4896 30.0103C17.9098 29.4305 17.9098 28.4688 18.4896 27.889L25.8294 20.5492L20.9645 20.5492C20.1442 20.5492 19.4654 19.8704 19.4654 19.0502C19.4654 18.2299 20.1442 17.5511 20.9645 17.5511Z" fill="#BE1E2D"/>
</g>
<defs>
<clipPath id="clip0_45_1173">
<rect width="48" height="48" fill="white" transform="translate(0.5)"/>
</clipPath>
</defs>
</svg>
