<svg width="46" height="24" viewBox="0 0 46 24" fill="none" xmlns="http://www.w3.org/2000/svg">
<g id="Illustration - Asset 8" clip-path="url(#clip0_316_299)">
<g id="Asset 8">
<g id="Clip path group">
<mask id="mask0_316_299" style="mask-type:luminance" maskUnits="userSpaceOnUse" x="0" y="0" width="46" height="24">
<g id="clip0_3_49732">
<path id="Vector" d="M45.4244 0H0.199951V24H45.4244V0Z" fill="white"/>
</g>
</mask>
<g mask="url(#mask0_316_299)">
<g id="Asset 8_2">
<g id="Layer 2">
<g id="Layer 1">
<path id="Vector_2" d="M16.4638 9.47949H11.1269C10.7507 9.47949 10.4458 9.78408 10.4458 10.1598V22.9256C10.4458 23.3013 10.7507 23.6059 11.1269 23.6059H16.4638C16.84 23.6059 17.1449 23.3013 17.1449 22.9256V10.1598C17.1449 9.78408 16.84 9.47949 16.4638 9.47949Z" fill="#F5E0E0"/>
<path id="Vector_2_2" d="M25.6434 5.20459H20.1837C19.8414 5.20459 19.564 5.48169 19.564 5.82355V23.173C19.564 23.5148 19.8414 23.7919 20.1837 23.7919H25.6434C25.9856 23.7919 26.2631 23.5148 26.2631 23.173V5.82355C26.2631 5.48169 25.9856 5.20459 25.6434 5.20459Z" fill="#F5E0E0"/>
<path id="Vector_3" d="M34.5031 0.186035H29.1884C28.8061 0.186035 28.4961 0.495608 28.4961 0.877484V22.9147C28.4961 23.2965 28.8061 23.6061 29.1884 23.6061H34.5031C34.8854 23.6061 35.1951 23.2965 35.1951 22.9147V0.877484C35.1951 0.495608 34.8854 0.186035 34.5031 0.186035Z" fill="#F5E0E0"/>
<path id="Vector_4" d="M35.2883 15.1504V22.9794C35.2886 23.0703 35.2708 23.1603 35.2361 23.2443C35.2014 23.3283 35.1503 23.4046 35.086 23.4689C35.0217 23.5331 34.9452 23.5841 34.8611 23.6187C34.7771 23.6534 34.6871 23.6711 34.5959 23.6708H29.2833C29.1921 23.6711 29.1021 23.6534 29.0178 23.6187C28.9337 23.5841 28.857 23.5332 28.7926 23.469C28.728 23.4047 28.677 23.3285 28.642 23.2444C28.6073 23.1604 28.5892 23.0703 28.5892 22.9794V15.7656C28.5892 15.4699 28.7069 15.1862 28.9162 14.977C29.1256 14.7679 29.4096 14.6504 29.7056 14.6504C30.0018 14.6504 30.2859 14.7679 30.4953 14.977C30.7046 15.1862 30.8222 15.4699 30.8222 15.7656V17.3177C30.8222 17.6135 30.9399 17.8971 31.1492 18.1063C31.3586 18.3154 31.6427 18.4329 31.9386 18.4329C32.2348 18.4329 32.5189 18.3154 32.7283 18.1063C32.9376 17.8971 33.0553 17.6135 33.0553 17.3177V15.1504C33.0553 14.8546 33.1729 14.571 33.3822 14.3618C33.5916 14.1526 33.8757 14.0352 34.1719 14.0352C34.4679 14.0352 34.752 14.1526 34.9613 14.3618C35.1706 14.571 35.2883 14.8546 35.2883 15.1504Z" fill="#E9BDBD"/>
<path id="Vector_5" d="M26.1608 11.9185V23.0932C26.161 23.184 26.1433 23.2741 26.1086 23.3581C26.0739 23.4421 26.0229 23.5184 25.9586 23.5827C25.8942 23.6469 25.8178 23.6978 25.7337 23.7325C25.6496 23.7672 25.5595 23.7849 25.4685 23.7846H20.1558C20.0647 23.7849 19.9745 23.7672 19.8903 23.7325C19.8061 23.6979 19.7296 23.647 19.6651 23.5828C19.6006 23.5185 19.5494 23.4422 19.5145 23.3582C19.4796 23.2742 19.4617 23.1842 19.4617 23.0932V16.6229C19.4617 16.3271 19.5793 16.0435 19.7887 15.8343C19.9981 15.6252 20.2821 15.5077 20.5782 15.5077C20.8743 15.5077 21.1583 15.6252 21.3677 15.8343C21.5771 16.0435 21.6947 16.3271 21.6947 16.6229V17.4315C21.6947 17.7273 21.8123 18.0109 22.0217 18.2201C22.2311 18.4292 22.5151 18.5467 22.8112 18.5467C23.1073 18.5467 23.3913 18.4292 23.6007 18.2201C23.8101 18.0109 23.9277 17.7273 23.9277 17.4315V11.9185C23.9277 11.6227 24.0454 11.339 24.2548 11.1299C24.4642 10.9207 24.7481 10.8032 25.0443 10.8032C25.3404 10.8032 25.6244 10.9207 25.8338 11.1299C26.0431 11.339 26.1608 11.6227 26.1608 11.9185Z" fill="#E9BDBD"/>
<path id="Vector_6" d="M17.2379 15.3364V22.7937C17.2382 22.8845 17.2204 22.9746 17.1857 23.0586C17.151 23.1426 17.1 23.2189 17.0357 23.2831C16.9714 23.3474 16.895 23.3983 16.8109 23.433C16.7268 23.4676 16.6367 23.4854 16.5457 23.4851H11.2329C11.1419 23.4854 11.0516 23.4677 10.9674 23.433C10.8832 23.3984 10.8067 23.3475 10.7422 23.2832C10.6777 23.219 10.6266 23.1427 10.5917 23.0587C10.5568 22.9747 10.5388 22.8846 10.5388 22.7937V16.3234C10.5388 16.0276 10.6564 15.744 10.8658 15.5348C11.0752 15.3257 11.3592 15.2082 11.6553 15.2082C11.9514 15.2082 12.2354 15.3257 12.4448 15.5348C12.6542 15.744 12.7719 16.0276 12.7719 16.3234V17.132C12.7719 17.4277 12.8895 17.7114 13.0989 17.9205C13.3083 18.1297 13.5922 18.2472 13.8884 18.2472C14.1845 18.2472 14.4685 18.1297 14.6779 17.9205C14.8873 17.7114 15.0049 17.4277 15.0049 17.132V15.3364C15.0049 15.0406 15.1225 14.757 15.3319 14.5478C15.5413 14.3387 15.8253 14.2212 16.1214 14.2212C16.4175 14.2212 16.7015 14.3387 16.9109 14.5478C17.1203 14.757 17.2379 15.0406 17.2379 15.3364Z" fill="#E9BDBD"/>
<path id="Vector_7" d="M36.6616 3.4405C36.8394 3.4405 36.9835 3.29653 36.9835 3.11892C36.9835 2.94134 36.8394 2.79736 36.6616 2.79736C36.4839 2.79736 36.3397 2.94134 36.3397 3.11892C36.3397 3.29653 36.4839 3.4405 36.6616 3.4405Z" fill="#EEF0F1"/>
<path id="Vector_8" d="M37.6033 5.4258C37.4264 5.42462 37.2552 5.36225 37.1192 5.24926C36.9832 5.13631 36.8906 4.97977 36.8574 4.80628C36.8238 4.63279 36.8517 4.45307 36.9361 4.29774C37.0201 4.14245 37.1558 4.02112 37.3198 3.95445C37.4834 3.88777 37.6654 3.87986 37.8344 3.93205C38.0033 3.98428 38.1489 4.09338 38.2465 4.24079C38.3439 4.38819 38.3873 4.56481 38.369 4.74053C38.3509 4.91628 38.2722 5.08028 38.1467 5.20462C38.0019 5.34741 37.8064 5.42695 37.6033 5.4258ZM37.6033 4.08938C37.4552 4.09777 37.3158 4.16242 37.214 4.27008C37.1121 4.37774 37.0554 4.52025 37.0554 4.66836C37.0554 4.8165 37.1121 4.95901 37.214 5.06667C37.3158 5.17434 37.4552 5.23898 37.6033 5.24738C37.6792 5.24811 37.7548 5.23383 37.8256 5.20532C37.8961 5.17684 37.9605 5.1347 38.0146 5.08135C38.0691 5.028 38.1122 4.96445 38.1419 4.89439C38.1715 4.82431 38.187 4.7491 38.1876 4.67301C38.1884 4.51986 38.1286 4.3725 38.0214 4.26315C37.9139 4.1538 37.7678 4.09135 37.6143 4.08938H37.6033Z" fill="#EEF0F1"/>
<path id="Vector_9" d="M13.7023 21.3752C14.8841 21.3752 15.8422 20.4182 15.8422 19.2376C15.8422 18.0571 14.8841 17.1001 13.7023 17.1001C12.5204 17.1001 11.5623 18.0571 11.5623 19.2376C11.5623 20.4182 12.5204 21.3752 13.7023 21.3752Z" fill="#D3A3A3"/>
<path id="Vector_10" d="M13.8884 20.2605C15.0703 20.2605 16.0284 19.3034 16.0284 18.1229C16.0284 16.9424 15.0703 15.9854 13.8884 15.9854C12.7065 15.9854 11.7484 16.9424 11.7484 18.1229C11.7484 19.3034 12.7065 20.2605 13.8884 20.2605Z" fill="white"/>
<path id="Vector_11" d="M13.7023 20.6322C13.2422 20.6322 12.7925 20.4959 12.41 20.2406C12.0275 19.9853 11.7293 19.6225 11.5533 19.1979C11.3772 18.7734 11.3312 18.3062 11.4209 17.8555C11.5107 17.4048 11.7322 16.9908 12.0575 16.6659C12.3828 16.3409 12.7973 16.1196 13.2485 16.03C13.6997 15.9403 14.1674 15.9863 14.5925 16.1622C15.0175 16.3381 15.3808 16.6359 15.6364 17.018C15.8919 17.4 16.0284 17.8492 16.0284 18.3088C16.0274 18.9247 15.782 19.5151 15.346 19.9506C14.91 20.3861 14.3189 20.6312 13.7023 20.6322ZM13.7023 16.3571C13.3158 16.3571 12.9381 16.4716 12.6168 16.686C12.2955 16.9005 12.045 17.2053 11.8971 17.5619C11.7492 17.9185 11.7106 18.3109 11.7859 18.6895C11.8613 19.0681 12.0474 19.4159 12.3207 19.6888C12.5939 19.9618 12.9421 20.1476 13.3211 20.2229C13.7001 20.2983 14.093 20.2596 14.45 20.1119C14.8071 19.9642 15.1122 19.714 15.3269 19.393C15.5416 19.0721 15.6562 18.6948 15.6562 18.3088C15.6557 17.7913 15.4497 17.2952 15.0834 16.9293C14.717 16.5634 14.2204 16.3576 13.7023 16.3571Z" fill="#183154"/>
<path id="Vector_12" d="M31.9389 8.92207C33.1207 8.92207 34.0788 7.96506 34.0788 6.78452C34.0788 5.60399 33.1207 4.64697 31.9389 4.64697C30.7568 4.64697 29.7987 5.60399 29.7987 6.78452C29.7987 7.96506 30.7568 8.92207 31.9389 8.92207Z" fill="#E9BDBD"/>
<path id="Vector_13" d="M32.1248 7.99238C33.3066 7.99238 34.2647 7.03537 34.2647 5.85483C34.2647 4.6743 33.3066 3.71729 32.1248 3.71729C30.943 3.71729 29.9849 4.6743 29.9849 5.85483C29.9849 7.03537 30.943 7.99238 32.1248 7.99238Z" fill="#FF9292"/>
<path id="Vector_14" d="M34.0788 5.92956C34.0796 6.407 33.9205 6.87097 33.6265 7.24742C33.3326 7.6239 32.9209 7.89114 32.4571 8.00646C31.9933 8.12179 31.5041 8.07857 31.068 7.88373C30.6315 7.68886 30.2732 7.35359 30.05 6.93142C30.3584 7.09671 30.7029 7.18294 31.053 7.18235C31.4229 7.18424 31.7871 7.09015 32.1098 6.90933C32.4326 6.72852 32.7029 6.46714 32.8941 6.15074C33.0854 5.83438 33.1912 5.47384 33.2011 5.10438C33.2112 4.73491 33.1249 4.36919 32.9511 4.04297C33.2928 4.22536 33.5786 4.49742 33.7772 4.82981C33.9758 5.16224 34.0802 5.54243 34.0788 5.92956Z" fill="#9B3838"/>
<path id="Vector_15" d="M31.9368 8.17839C31.5097 8.17856 31.0907 8.06137 30.7259 7.83968C30.3612 7.61796 30.0644 7.30027 29.868 6.92137C29.6719 6.54244 29.5839 6.11695 29.6135 5.69137C29.6431 5.26582 29.7896 4.85664 30.0364 4.50858C30.2836 4.16053 30.6216 3.88706 31.0137 3.71808C31.4059 3.54906 31.8369 3.49109 32.2598 3.55047C32.6828 3.60982 33.0811 3.78427 33.4115 4.05467C33.7418 4.32509 33.9912 4.68103 34.1326 5.0836C34.2547 5.43408 34.2914 5.80867 34.2392 6.17613C34.187 6.5436 34.0479 6.89329 33.833 7.19608C33.6183 7.49886 33.3339 7.74599 33.0041 7.91687C32.6743 8.08774 32.3084 8.1774 31.9368 8.17839ZM31.9368 3.90329C31.5215 3.90303 31.117 4.03481 30.7818 4.27954C30.4464 4.52427 30.1978 4.86926 30.072 5.26453C29.9459 5.65979 29.9493 6.08484 30.0813 6.4781C30.2133 6.87137 30.4675 7.21244 30.8063 7.45191C31.1455 7.69137 31.552 7.81684 31.9673 7.8101C32.3826 7.80337 32.7849 7.66481 33.1161 7.41444C33.447 7.1641 33.6899 6.81498 33.809 6.41765C33.9283 6.02033 33.9179 5.5954 33.7791 5.20441C33.6437 4.82433 33.394 4.49534 33.0642 4.26241C32.7344 4.02951 32.3408 3.90408 31.9368 3.90329Z" fill="#183154"/>
<path id="Vector_16" d="M24.9493 9.10767C24.9074 9.107 24.867 9.09226 24.8345 9.06581C24.8021 9.03936 24.7795 9.00277 24.7705 8.96193C24.7615 8.92108 24.7665 8.8784 24.7847 8.84074C24.803 8.80311 24.8334 8.77271 24.8711 8.75449L29.7095 6.45525C29.7532 6.43807 29.8017 6.43809 29.8457 6.45533C29.8895 6.47254 29.925 6.5057 29.9453 6.54812C29.9656 6.59052 29.969 6.63902 29.9549 6.68387C29.9408 6.72871 29.9103 6.76657 29.8694 6.78981L25.0312 9.08908C25.0058 9.10181 24.9777 9.10821 24.9493 9.10767Z" fill="#183154"/>
<path id="Vector_17" d="M10.3528 3.42383L12.048 6.85693L14.7258 7.06324L12.8649 8.36434L13.9814 13.3829L10.7249 11.7305L10.7231 10.6134L7.28235 11.8959L7.608 10.08L7.84062 7.62084L8.65567 6.85693L10.3528 3.42383Z" fill="#E9BDBD"/>
<path id="Vector_18" opacity="0.3" d="M0.58138 13.961C0.704217 13.8407 0.84968 13.746 1.00937 13.6822C1.16907 13.6183 1.33983 13.5868 1.51181 13.5892H5.75457C6.10006 13.5892 6.43136 13.4521 6.67565 13.2081C6.91994 12.9641 7.05716 12.6332 7.05716 12.2881C7.05716 11.943 6.91994 11.6121 6.67565 11.3681C6.43136 11.1241 6.10006 10.987 5.75457 10.987H3.2945C2.94904 10.987 2.61772 10.8499 2.37344 10.6059C2.12915 10.3619 1.99191 10.031 1.99191 9.68589C1.99191 9.34082 2.12915 9.00986 2.37344 8.76586C2.61772 8.52186 2.94904 8.38477 3.2945 8.38477H9.31813C9.59055 8.38477 9.85183 8.49288 10.0445 8.6853C10.2371 8.8777 10.3453 9.13868 10.3453 9.41079V22.974C10.3453 23.2461 10.2371 23.5071 10.0445 23.6995C9.85183 23.8919 9.59055 24 9.31813 24H7.54473C7.89019 24 8.22152 23.8629 8.46581 23.6189C8.71007 23.3749 8.84733 23.044 8.84733 22.6989C8.84733 22.3538 8.71007 22.0229 8.46581 21.7789C8.22152 21.5348 7.89019 21.3978 7.54473 21.3978H1.50251C1.15703 21.3978 0.825714 21.2607 0.581428 21.0167C0.337143 20.7727 0.199905 20.4418 0.199905 20.0967C0.199905 19.7516 0.337143 19.4207 0.581428 19.1767C0.825714 18.9326 1.15703 18.7956 1.50251 18.7956H4.80367C5.14916 18.7956 5.48046 18.6585 5.72475 18.4145C5.96904 18.1705 6.10626 17.8395 6.10626 17.4944C6.10626 17.1494 5.96904 16.8184 5.72475 16.5744C5.48046 16.3304 5.14916 16.1933 4.80367 16.1933H1.50251C1.15703 16.1933 0.825714 16.0562 0.581428 15.8122C0.337143 15.5682 0.199905 15.2373 0.199905 14.8922C0.198038 14.7197 0.230837 14.5485 0.296362 14.3889C0.361886 14.2293 0.458805 14.0844 0.58138 13.9628" fill="#E9BDCF"/>
<path id="Vector_19" opacity="0.3" d="M35.2716 3.81408V17.3921C35.2713 17.5272 35.2978 17.661 35.3495 17.7858C35.4011 17.9106 35.4767 18.024 35.5724 18.1195C35.668 18.215 35.7817 18.2907 35.9064 18.3423C36.0314 18.3939 36.1654 18.4203 36.3005 18.42H38.0796C37.734 18.42 37.4028 18.283 37.1585 18.0389C36.9141 17.7949 36.777 17.464 36.777 17.1189C36.777 16.7738 36.9141 16.4429 37.1585 16.1989C37.4028 15.9549 37.734 15.8178 38.0796 15.8178H44.1162C44.4618 15.8178 44.793 15.6807 45.0373 15.4367C45.2817 15.1927 45.4188 14.8617 45.4188 14.5167C45.4188 14.1716 45.2817 13.8406 45.0373 13.5966C44.793 13.3526 44.4618 13.2156 44.1162 13.2156H40.8207C40.4751 13.2156 40.1439 13.0785 39.8996 12.8345C39.6553 12.5905 39.5181 12.2595 39.5181 11.9145C39.5181 11.5694 39.6553 11.2384 39.8996 10.9944C40.1439 10.7504 40.4751 10.6133 40.8207 10.6133H44.1162C44.4618 10.6133 44.793 10.4763 45.0373 10.2323C45.2817 9.98823 45.4188 9.6573 45.4188 9.31223C45.4188 8.96713 45.2817 8.6362 45.0373 8.3922C44.793 8.1482 44.4618 8.0111 44.1162 8.0111H39.868C39.5224 8.0111 39.1912 7.87403 38.9468 7.63003C38.7025 7.386 38.5654 7.05507 38.5654 6.71C38.5654 6.3649 38.7025 6.03397 38.9468 5.78997C39.1912 5.54594 39.5224 5.40887 39.868 5.40887H42.3298C42.6754 5.40887 43.0066 5.2718 43.2509 5.02778C43.4952 4.78377 43.6324 4.45285 43.6324 4.10775C43.6324 3.76268 43.4952 3.43175 43.2509 3.18772C43.0066 2.94372 42.6754 2.80664 42.3298 2.80664H36.3005C36.0311 2.80611 35.7721 2.91144 35.5797 3.09992C35.387 3.28837 35.2764 3.54487 35.2716 3.81408Z" fill="#E9BDCF"/>
<path id="Vector_20" d="M33.6285 13.4366C33.9552 13.4366 34.2201 13.1719 34.2201 12.8455C34.2201 12.519 33.9552 12.2544 33.6285 12.2544C33.3015 12.2544 33.0366 12.519 33.0366 12.8455C33.0366 13.1719 33.3015 13.4366 33.6285 13.4366Z" fill="#E9BDBD"/>
<path id="Vector_21" opacity="0.5" d="M32.5956 13.8792C32.759 13.8792 32.8916 13.7468 32.8916 13.5836C32.8916 13.4204 32.759 13.2881 32.5956 13.2881C32.4323 13.2881 32.2997 13.4204 32.2997 13.5836C32.2997 13.7468 32.4323 13.8792 32.5956 13.8792Z" fill="#E9BDBD"/>
<path id="Vector_22" d="M22.0018 14.8682C22.3286 14.8682 22.5935 14.6036 22.5935 14.2771C22.5935 13.9507 22.3286 13.686 22.0018 13.686C21.675 13.686 21.41 13.9507 21.41 14.2771C21.41 14.6036 21.675 14.8682 22.0018 14.8682Z" fill="#E9BDBD"/>
<path id="Vector_23" opacity="0.5" d="M20.9672 15.3103C21.1306 15.3103 21.263 15.178 21.263 15.0148C21.263 14.8515 21.1306 14.7192 20.9672 14.7192C20.8037 14.7192 20.6713 14.8515 20.6713 15.0148C20.6713 15.178 20.8037 15.3103 20.9672 15.3103Z" fill="#E9BDBD"/>
<path id="Vector_24" d="M13.5478 14.647C13.8747 14.647 14.1396 14.3824 14.1396 14.0559C14.1396 13.7295 13.8747 13.4648 13.5478 13.4648C13.221 13.4648 12.9561 13.7295 12.9561 14.0559C12.9561 14.3824 13.221 14.647 13.5478 14.647Z" fill="#E9BDBD"/>
<path id="Vector_25" opacity="0.5" d="M12.5131 15.0891C12.6766 15.0891 12.809 14.9568 12.809 14.7936C12.809 14.6304 12.6766 14.498 12.5131 14.498C12.3497 14.498 12.2173 14.6304 12.2173 14.7936C12.2173 14.9568 12.3497 15.0891 12.5131 15.0891Z" fill="#E9BDBD"/>
<path id="Vector_26" d="M22.0017 5.44629H25.6006C25.6006 5.55474 25.5575 5.65874 25.4807 5.73544C25.404 5.81212 25.2998 5.85522 25.1912 5.85522H22.413C22.3044 5.85522 22.2003 5.81212 22.1235 5.73544C22.0467 5.65874 22.0036 5.55474 22.0036 5.44629H22.0017Z" fill="white"/>
<path id="Vector_27" d="M16.4786 23.7918H11.1398C10.9064 23.7918 10.6825 23.6992 10.5174 23.5343C10.3524 23.3694 10.2596 23.1458 10.2596 22.9126V10.2732C10.2596 10.0401 10.3524 9.81644 10.5174 9.65156C10.6825 9.48669 10.9064 9.39404 11.1398 9.39404H16.4786C16.7121 9.39404 16.936 9.48669 17.101 9.65156C17.2661 9.81644 17.3588 10.0401 17.3588 10.2732V22.9126C17.3588 23.1458 17.2661 23.3694 17.101 23.5343C16.936 23.6992 16.7121 23.7918 16.4786 23.7918ZM11.1398 9.76021C11.0051 9.76021 10.8759 9.81368 10.7806 9.90883C10.6853 10.004 10.6318 10.1331 10.6318 10.2676V22.9071C10.6311 22.9742 10.6437 23.0407 10.6689 23.103C10.6941 23.1652 10.7314 23.2218 10.7786 23.2695C10.8259 23.3172 10.8821 23.3551 10.9441 23.3809C11.0061 23.4068 11.0726 23.4201 11.1398 23.4201H16.4786C16.6132 23.4196 16.7421 23.366 16.8373 23.2709C16.9325 23.1758 16.9862 23.0471 16.9867 22.9126V10.2732C16.9867 10.1387 16.9331 10.0096 16.8379 9.91441C16.7426 9.81925 16.6134 9.76579 16.4786 9.76579L11.1398 9.76021Z" fill="#183154"/>
<path id="Vector_28" d="M25.4815 23.7921H20.1427C19.9093 23.7921 19.6854 23.6994 19.5203 23.5346C19.3553 23.3697 19.2626 23.1461 19.2626 22.9129V6.01883C19.2626 5.78568 19.3553 5.56204 19.5203 5.39717C19.6854 5.2323 19.9093 5.13965 20.1427 5.13965H25.4815C25.715 5.13965 25.9389 5.2323 26.1039 5.39717C26.269 5.56204 26.3617 5.78568 26.3617 6.01883V22.9129C26.3617 23.1461 26.269 23.3697 26.1039 23.5346C25.9389 23.6994 25.715 23.7921 25.4815 23.7921ZM20.1427 5.51139C20.008 5.51139 19.8788 5.56486 19.7835 5.66001C19.6883 5.7552 19.6347 5.88427 19.6347 6.01883V22.9129C19.6347 23.0475 19.6883 23.1765 19.7835 23.2717C19.8788 23.3669 20.008 23.4203 20.1427 23.4203H25.4815C25.6161 23.4198 25.7451 23.3662 25.8402 23.2712C25.9354 23.1761 25.9891 23.0473 25.9896 22.9129V6.01883C25.9896 5.88427 25.936 5.7552 25.8408 5.66001C25.7455 5.56486 25.6163 5.51139 25.4815 5.51139H20.1427Z" fill="#183154"/>
<path id="Vector_29" d="M28.55 5.39027C28.5006 5.39027 28.4535 5.3707 28.4185 5.33582C28.3836 5.30098 28.364 5.25371 28.364 5.20442V4.4925C28.364 4.4432 28.3836 4.39594 28.4185 4.36106C28.4535 4.32622 28.5006 4.30664 28.55 4.30664C28.5994 4.30664 28.6468 4.32622 28.6817 4.36106C28.7164 4.39594 28.7362 4.4432 28.7362 4.4925V5.20442C28.7362 5.25371 28.7164 5.30098 28.6817 5.33582C28.6468 5.3707 28.5994 5.39027 28.55 5.39027Z" fill="#183154"/>
<path id="Vector_30" d="M28.55 6.22476C28.5006 6.22476 28.4535 6.20518 28.4185 6.17034C28.3836 6.13546 28.364 6.0882 28.364 6.0389V5.88462C28.364 5.83532 28.3836 5.78805 28.4185 5.75318C28.4535 5.71834 28.5006 5.69873 28.55 5.69873C28.5994 5.69873 28.6468 5.71834 28.6817 5.75318C28.7164 5.78805 28.7362 5.83532 28.7362 5.88462V6.0389C28.7362 6.0882 28.7164 6.13546 28.6817 6.17034C28.6468 6.20518 28.5994 6.22476 28.55 6.22476Z" fill="#183154"/>
<path id="Vector_31" d="M34.5829 23.7918H29.2443C29.0107 23.7918 28.787 23.6992 28.6219 23.5343C28.4569 23.3694 28.364 23.1458 28.364 22.9126V6.66538C28.364 6.61608 28.3836 6.56882 28.4185 6.53394C28.4535 6.4991 28.5006 6.47949 28.55 6.47949C28.5994 6.47949 28.6468 6.4991 28.6817 6.53394C28.7164 6.56882 28.7362 6.61608 28.7362 6.66538V22.9126C28.7368 23.047 28.7904 23.1758 28.8854 23.2709C28.9808 23.3659 29.1097 23.4195 29.2443 23.42H34.5829C34.7178 23.42 34.847 23.3666 34.9424 23.2714C35.0374 23.1763 35.091 23.0472 35.091 22.9126V22.5167C35.091 22.4674 35.1105 22.4201 35.1455 22.3852C35.1805 22.3504 35.2279 22.3308 35.2772 22.3308C35.3263 22.3308 35.3737 22.3504 35.4087 22.3852C35.4437 22.4201 35.4632 22.4674 35.4632 22.5167V22.9126C35.4632 23.1458 35.3703 23.3694 35.2053 23.5343C35.0403 23.6992 34.8165 23.7918 34.5829 23.7918Z" fill="#183154"/>
<path id="Vector_32" d="M35.2772 18.2918C35.2279 18.2918 35.1805 18.2722 35.1455 18.2374C35.1105 18.2025 35.091 18.1552 35.091 18.1059V0.879183C35.091 0.744603 35.0374 0.615535 34.9424 0.520372C34.847 0.425208 34.7178 0.371746 34.5829 0.371746H29.2443C29.1097 0.372237 28.9808 0.425856 28.8854 0.520913C28.7904 0.615969 28.7368 0.744752 28.7362 0.879183V3.81228C28.7362 3.86158 28.7164 3.90885 28.6817 3.94369C28.6468 3.97856 28.5994 3.99814 28.55 3.99814C28.5006 3.99814 28.4535 3.97856 28.4185 3.94369C28.3836 3.90885 28.364 3.86158 28.364 3.81228V0.879183C28.364 0.646008 28.4569 0.422386 28.6219 0.257506C28.787 0.0926279 29.0107 0 29.2443 0H34.5829C34.8165 0 35.0403 0.0926279 35.2053 0.257506C35.3703 0.422386 35.4632 0.646008 35.4632 0.879183V18.1059C35.4632 18.1552 35.4437 18.2025 35.4087 18.2374C35.3737 18.2722 35.3263 18.2918 35.2772 18.2918Z" fill="#183154"/>
<path id="Vector_33" d="M31.362 4.43853C31.3371 4.44174 31.3123 4.43501 31.2926 4.41985C31.2728 4.4047 31.2598 4.38233 31.2567 4.35768C31.2536 4.33304 31.2604 4.30811 31.2753 4.28842C31.2906 4.26873 31.3131 4.25585 31.3377 4.25267L31.3916 4.23966C31.4034 4.23661 31.4158 4.23602 31.428 4.23785C31.4401 4.23968 31.4517 4.24394 31.4621 4.25036C31.4725 4.25678 31.4816 4.26523 31.4886 4.2752C31.4957 4.28518 31.5008 4.29647 31.5033 4.30842C31.5089 4.33233 31.5047 4.35746 31.492 4.37836C31.479 4.39926 31.4584 4.41422 31.4345 4.41994L31.3859 4.43295L31.362 4.43853Z" fill="white"/>
<path id="Vector_34" d="M30.3737 5.73635C30.3615 5.73587 30.3494 5.73297 30.3384 5.72787C30.3274 5.72274 30.3172 5.71548 30.3091 5.70652C30.3009 5.69753 30.2944 5.68703 30.2902 5.67553C30.2859 5.66407 30.284 5.6519 30.2845 5.63967C30.2845 5.60252 30.3311 4.73263 31.0716 4.35903C31.0937 4.34798 31.119 4.3461 31.1425 4.35376C31.1656 4.36142 31.1851 4.37801 31.1963 4.3999C31.202 4.41072 31.2054 4.42257 31.2065 4.43477C31.2076 4.44697 31.2062 4.45922 31.2023 4.47086C31.1983 4.48249 31.1924 4.49322 31.1842 4.50243C31.1763 4.51162 31.1664 4.51911 31.1554 4.52443C30.5097 4.85159 30.4704 5.63967 30.4704 5.63967C30.471 5.65252 30.469 5.66531 30.4642 5.67728C30.4594 5.68925 30.4524 5.70012 30.4434 5.70919C30.4343 5.71826 30.4233 5.72539 30.4115 5.73004C30.3993 5.73472 30.3866 5.73686 30.3737 5.73635Z" fill="white"/>
<path id="Vector_35" d="M22.8113 12.6003C23.9931 12.6003 24.9513 11.6433 24.9513 10.4627C24.9513 9.28221 23.9931 8.3252 22.8113 8.3252C21.6294 8.3252 20.6713 9.28221 20.6713 10.4627C20.6713 11.6433 21.6294 12.6003 22.8113 12.6003Z" fill="#E9BDBD"/>
<path id="Vector_36" d="M22.8113 11.7116C23.9931 11.7116 24.9513 10.7546 24.9513 9.57407C24.9513 8.39354 23.9931 7.43652 22.8113 7.43652C21.6294 7.43652 20.6713 8.39354 20.6713 9.57407C20.6713 10.7546 21.6294 11.7116 22.8113 11.7116Z" fill="white"/>
<path id="Vector_37" d="M15.5594 17.4723C15.5183 17.4722 15.4784 17.4585 15.4459 17.4333C15.4264 17.4184 15.41 17.3997 15.3977 17.3784C15.3855 17.3571 15.3775 17.3336 15.3744 17.3092C15.3713 17.2849 15.3731 17.2601 15.3796 17.2364C15.3861 17.2127 15.3973 17.1906 15.4124 17.1712L20.7196 10.3422C20.7508 10.3066 20.7944 10.2842 20.8415 10.2797C20.8887 10.2751 20.9358 10.2886 20.9733 10.3175C21.0108 10.3465 21.0358 10.3886 21.0433 10.4353C21.0508 10.482 21.0402 10.5298 21.0136 10.569L15.7064 17.4073C15.6884 17.4284 15.6658 17.4452 15.6403 17.4565C15.6149 17.4677 15.5872 17.4732 15.5594 17.4723Z" fill="#183154"/>
<path id="Vector_38" d="M23.8495 7.74902C24.0554 8.15074 24.1285 8.60733 24.0582 9.05316C23.9879 9.49897 23.778 9.91105 23.4585 10.2302C23.139 10.5493 22.7265 10.759 22.2801 10.8292C21.8338 10.8994 21.3767 10.8264 20.9745 10.6208C21.1271 10.9224 21.349 11.1836 21.6222 11.383C21.8955 11.5823 22.2121 11.7141 22.5462 11.7676C22.8802 11.821 23.2223 11.7946 23.5441 11.6904C23.866 11.5863 24.1585 11.4074 24.3978 11.1684C24.637 10.9294 24.8161 10.6372 24.9204 10.3157C25.0247 9.99421 25.0512 9.6526 24.9977 9.31888C24.9441 8.98519 24.8122 8.66894 24.6126 8.39604C24.413 8.12314 24.1515 7.90142 23.8495 7.74902Z" fill="#E9BDBD"/>
<path id="Vector_39" d="M10.1667 1.75098L11.8619 5.18407L15.6562 5.73424L12.9115 8.40711L13.559 12.1804L10.1667 10.3997L6.77432 12.1804L7.42191 8.40711L4.67712 5.73424L8.46958 5.18407L10.1667 1.75098Z" fill="#FF8F8F"/>
<path id="Vector_40" d="M12.9114 8.48317L13.559 12.2676L10.1666 10.4757L6.77429 12.2676L7.11857 10.2583C8.41916 10.0719 9.67148 9.63638 10.8068 8.97573C12.2213 8.14976 13.4166 6.99663 14.2922 5.61328L15.6562 5.81218L12.9114 8.48317Z" fill="#9B3838"/>
<path id="Vector_41" d="M11.0617 3.9032C11.027 3.90342 10.993 3.89399 10.9634 3.87593C10.9338 3.85787 10.9098 3.8319 10.8942 3.80097L10.6765 3.35672C10.6564 3.31283 10.6541 3.2628 10.6701 3.21726C10.6863 3.17171 10.7195 3.13421 10.7628 3.11269C10.8061 3.0912 10.8561 3.08737 10.9021 3.10204C10.9482 3.11672 10.9868 3.14872 11.0096 3.19128L11.2292 3.63554C11.24 3.65751 11.2464 3.68137 11.2479 3.70579C11.2494 3.73021 11.2461 3.75469 11.2382 3.77782C11.2302 3.80097 11.2178 3.8223 11.2016 3.84064C11.1853 3.85895 11.1656 3.8739 11.1436 3.88461C11.1181 3.89694 11.0901 3.90331 11.0617 3.9032Z" fill="#183154"/>
<path id="Vector_42" d="M13.8065 12.6746L10.1667 10.7638L6.52687 12.6746L7.22098 8.62622L4.2771 5.76191L8.3468 5.17084L10.1667 1.48682L10.684 2.53514C10.7042 2.57904 10.7065 2.62906 10.6904 2.67461C10.6743 2.72016 10.6411 2.75766 10.5978 2.77916C10.5545 2.80067 10.5045 2.80449 10.4584 2.78982C10.4123 2.77515 10.3738 2.74314 10.3509 2.70057L10.1649 2.32882L8.59428 5.50912L5.07726 6.01842L7.62106 8.49611L7.01999 11.9961L10.1667 10.3437L13.3116 11.9961L12.7105 8.49611L15.2562 6.01842L11.7373 5.50912L11.5661 5.16155C11.5441 5.11741 11.5406 5.06639 11.5564 5.01969C11.572 4.97298 11.6057 4.93442 11.6498 4.91248C11.6718 4.90169 11.6957 4.89535 11.7202 4.8938C11.7446 4.89225 11.7691 4.89555 11.7923 4.90349C11.8154 4.91143 11.8368 4.92388 11.8552 4.94008C11.8735 4.95631 11.8885 4.97597 11.8992 4.99797L11.9848 5.16898L16.0563 5.76191L13.1106 8.62622L13.8065 12.6746Z" fill="#183154"/>
<path id="Vector_43" d="M11.4488 4.68771C11.4144 4.6876 11.3808 4.67799 11.3516 4.65993C11.3223 4.64191 11.2987 4.61613 11.2832 4.58548L11.2143 4.44607C11.2031 4.42396 11.1963 4.39988 11.1944 4.37517C11.1925 4.35047 11.1955 4.32562 11.2031 4.30207C11.2108 4.27853 11.2231 4.25669 11.2392 4.23788C11.2554 4.21903 11.275 4.20357 11.2972 4.19236C11.3193 4.18112 11.3434 4.17436 11.3681 4.17244C11.3929 4.17053 11.4177 4.17348 11.4413 4.18115C11.4649 4.18884 11.4867 4.20109 11.5056 4.2172C11.5244 4.23331 11.5399 4.25298 11.5512 4.27506L11.62 4.41447C11.6419 4.45858 11.6454 4.50962 11.6298 4.5563C11.614 4.603 11.5804 4.6416 11.5363 4.66354C11.5096 4.67867 11.4795 4.68698 11.4488 4.68771Z" fill="#183154"/>
<g id="Group" opacity="0.15">
<path id="Vector_44" opacity="0.15" d="M9.86698 8.04107C10.5206 8.04107 11.0505 7.5118 11.0505 6.8589C11.0505 6.20603 10.5206 5.67676 9.86698 5.67676C9.21336 5.67676 8.68347 6.20603 8.68347 6.8589C8.68347 7.5118 9.21336 8.04107 9.86698 8.04107Z" fill="white"/>
<path id="Vector_45" opacity="0.15" d="M8.50484 9.19532C8.83165 9.19532 9.0966 8.9307 9.0966 8.60425C9.0966 8.2778 8.83165 8.01318 8.50484 8.01318C8.17803 8.01318 7.91309 8.2778 7.91309 8.60425C7.91309 8.9307 8.17803 9.19532 8.50484 9.19532Z" fill="white"/>
</g>
<path id="Vector_46" d="M10.2243 4.39598C10.2984 4.39598 10.3693 4.36663 10.4217 4.31432C10.474 4.26204 10.5034 4.19114 10.5034 4.1172C10.5034 4.04325 10.474 3.97232 10.4217 3.92004C10.3693 3.86776 10.2984 3.83838 10.2243 3.83838C10.1503 3.83838 10.0793 3.86776 10.027 3.92004C9.97459 3.97232 9.94519 4.04325 9.94519 4.1172C9.94519 4.19114 9.97459 4.26204 10.027 4.31432C10.0793 4.36663 10.1503 4.39598 10.2243 4.39598Z" fill="#FDFEFF"/>
<path id="Vector_47" d="M9.3069 6.3197C9.41253 5.88134 9.59052 5.46359 9.83351 5.08365C9.9768 4.855 9.61394 4.64497 9.47251 4.87359C9.21038 5.28407 9.01798 5.73503 8.90309 6.20818C8.84354 6.47027 9.24548 6.57993 9.3069 6.3197Z" fill="#FDFEFF"/>
<path id="Vector_48" d="M22.8112 11.8959C22.351 11.8962 21.901 11.7602 21.5182 11.5051C21.1354 11.2499 20.837 10.8871 20.6607 10.4624C20.4844 10.0378 20.4382 9.5705 20.5279 9.11963C20.6176 8.66875 20.8391 8.25458 21.1646 7.92954C21.49 7.6045 21.9046 7.38317 22.356 7.29357C22.8074 7.20399 23.2753 7.25016 23.7004 7.42624C24.1255 7.60233 24.4887 7.90041 24.7442 8.28278C24.9996 8.66515 25.1358 9.11461 25.1354 9.5743C25.1339 10.1896 24.8886 10.7792 24.453 11.2143C24.0175 11.6493 23.4272 11.8944 22.8112 11.8959ZM22.8112 7.62078C22.4248 7.62041 22.0469 7.7345 21.7254 7.94867C21.4038 8.16281 21.1531 8.46737 21.0049 8.82385C20.8567 9.18033 20.8176 9.57272 20.8926 9.95137C20.9677 10.33 21.1534 10.678 21.4264 10.9512C21.6994 11.2244 22.0474 11.4106 22.4263 11.4862C22.8053 11.5619 23.1982 11.5237 23.5554 11.3763C23.9125 11.2289 24.2179 10.979 24.4329 10.6583C24.6479 10.3375 24.7629 9.9603 24.7633 9.5743C24.7633 9.05684 24.5577 8.56053 24.1917 8.19427C23.8258 7.82802 23.3293 7.62177 22.8112 7.62078Z" fill="#183154"/>
<path id="Vector_49" d="M35.2883 21.6115C35.2389 21.6115 35.1915 21.592 35.1568 21.5571C35.1218 21.5222 35.1021 21.475 35.1021 21.4257V20.2733C35.1021 20.224 35.1218 20.1767 35.1568 20.1418C35.1915 20.107 35.2389 20.0874 35.2883 20.0874C35.3376 20.0874 35.385 20.107 35.4197 20.1418C35.4547 20.1767 35.4745 20.224 35.4745 20.2733V21.4257C35.4745 21.475 35.4547 21.5222 35.4197 21.5571C35.385 21.592 35.3376 21.6115 35.2883 21.6115Z" fill="#183154"/>
<path id="Vector_50" d="M35.2883 19.5705C35.2389 19.5705 35.1915 19.5509 35.1568 19.516C35.1218 19.4812 35.1021 19.4339 35.1021 19.3846V19.1634C35.1021 19.1141 35.1218 19.0668 35.1568 19.032C35.1915 18.9971 35.2389 18.9775 35.2883 18.9775C35.3376 18.9775 35.385 18.9971 35.4197 19.032C35.4547 19.0668 35.4745 19.1141 35.4745 19.1634V19.3846C35.4745 19.4339 35.4547 19.4812 35.4197 19.516C35.385 19.5509 35.3376 19.5705 35.2883 19.5705Z" fill="#183154"/>
</g>
</g>
</g>
</g>
</g>
</g>
</g>
<defs>
<clipPath id="clip0_316_299">
<rect width="45.2245" height="24" fill="white" transform="translate(0.199951)"/>
</clipPath>
</defs>
</svg>
