<svg width="48" height="48" viewBox="0 0 48 48" fill="none" xmlns="http://www.w3.org/2000/svg">
<g id="icon/reset">
<g id="Group 44892">
<circle id="Ellipse 47" cx="24" cy="24" r="20" fill="#BE1E2D"/>
<path id="Vector" d="M35.546 17.7317L32.2688 14.4544C31.9741 14.1633 31.5766 14 31.1624 14C30.7482 14 30.3507 14.1633 30.0561 14.4544C29.4507 15.0598 29.4507 16.0617 30.0561 16.6671L30.7449 17.3559H19.9948C15.5903 17.3559 12 20.9463 12 25.3507C12 29.7552 15.5903 33.3455 19.9948 33.3455H30.2648C31.1207 33.3455 31.8304 32.6358 31.8304 31.7799C31.8304 30.9241 31.1207 30.2144 30.2648 30.2144H19.9948C17.3229 30.2144 15.1311 28.0435 15.1311 25.3507C15.1311 22.658 17.302 20.487 19.9948 20.487H30.5988L30.0561 21.0298C29.4507 21.6351 29.4507 22.6371 30.0561 23.2424C30.3692 23.5555 30.7658 23.7017 31.1624 23.7017C31.559 23.7017 31.9556 23.5555 32.2688 23.2424L35.546 19.9652C36.1513 19.339 36.1513 18.3579 35.546 17.7317Z" fill="white"/>
</g>
</g>
</svg>
