<svg width="53" height="52" viewBox="0 0 53 52" fill="none" xmlns="http://www.w3.org/2000/svg">
<path d="M20.5 0C9.46 0 0.5 8.96 0.5 20C0.5 31.04 9.46 40 20.5 40C31.54 40 40.5 31.04 40.5 20C40.5 8.96 31.54 0 20.5 0ZM32.2 24.2C32.12 24.38 32.02 24.54 31.88 24.68L25.8 30.76C25.5 31.06 25.12 31.2 24.74 31.2C24.36 31.2 23.98 31.06 23.68 30.76C23.401 30.4777 23.2446 30.0969 23.2446 29.7C23.2446 29.3031 23.401 28.9223 23.68 28.64C24.979 27.341 24.059 25.12 22.222 25.12H10.2C9.38 25.12 8.7 24.44 8.7 23.62C8.7 22.8 9.38 22.12 10.2 22.12H30.82C31.02 22.12 31.2 22.16 31.4 22.24C31.76 22.4 32.06 22.68 32.22 23.06C32.34 23.42 32.34 23.84 32.2 24.2ZM30.8 17.86H10.2C10 17.86 9.8 17.82 9.62 17.74C9.25169 17.5818 8.95816 17.2883 8.8 16.92C8.72088 16.7404 8.68002 16.5463 8.68002 16.35C8.68002 16.1537 8.72088 15.9596 8.8 15.78C8.88 15.6 8.98 15.44 9.12 15.3L15.2 9.22C15.78 8.64 16.74 8.64 17.32 9.22C17.9 9.8 17.9 10.76 17.32 11.34C16.0252 12.6422 16.9476 14.86 18.7839 14.86H30.82C31.64 14.86 32.32 15.54 32.32 16.36C32.32 17.18 31.64 17.86 30.8 17.86Z" fill="url(#paint0_linear_901_4200)"/>
<g filter="url(#filter0_b_901_4200)">
<circle cx="33.5" cy="33" r="19" fill="url(#paint1_linear_901_4200)" fill-opacity="0.8"/>
<circle cx="33.5" cy="33" r="18.5" stroke="url(#paint2_linear_901_4200)"/>
</g>
<path d="M25.5 33L30.5 38L40.5177 28" stroke="white" stroke-width="3" stroke-linecap="round" stroke-linejoin="round"/>
<defs>
<filter id="filter0_b_901_4200" x="8.5" y="8" width="50" height="50" filterUnits="userSpaceOnUse" color-interpolation-filters="sRGB">
<feFlood flood-opacity="0" result="BackgroundImageFix"/>
<feGaussianBlur in="BackgroundImageFix" stdDeviation="3"/>
<feComposite in2="SourceAlpha" operator="in" result="effect1_backgroundBlur_901_4200"/>
<feBlend mode="normal" in="SourceGraphic" in2="effect1_backgroundBlur_901_4200" result="shape"/>
</filter>
<linearGradient id="paint0_linear_901_4200" x1="0.5" y1="0" x2="57.1316" y2="51.1342" gradientUnits="userSpaceOnUse">
<stop stop-color="#FB6E7B"/>
<stop offset="1" stop-color="#FD3250"/>
</linearGradient>
<linearGradient id="paint1_linear_901_4200" x1="16.3985" y1="14" x2="74.2039" y2="36.4518" gradientUnits="userSpaceOnUse">
<stop stop-color="#FAD384" stop-opacity="0"/>
<stop offset="1" stop-color="#F19B4D"/>
</linearGradient>
<linearGradient id="paint2_linear_901_4200" x1="33.5" y1="14" x2="33.5" y2="52" gradientUnits="userSpaceOnUse">
<stop stop-color="white" stop-opacity="0.47"/>
<stop offset="1" stop-color="#FFEDDD" stop-opacity="0"/>
</linearGradient>
</defs>
</svg>
