<svg width="49" height="48" viewBox="0 0 49 48" fill="none" xmlns="http://www.w3.org/2000/svg">
<g id="icon/switch">
<path id="Vector" d="M24.5 44C35.546 44 44.5 35.046 44.5 24C44.5 12.954 35.546 4 24.5 4C13.454 4 4.5 12.954 4.5 24C4.5 35.046 13.454 44 24.5 44Z" fill="#BE1E2D"/>
<path id="Ellipse 48" d="M31.6231 14.3428C29.4509 12.7406 26.802 11.9175 24.1044 12.0065C21.4067 12.0955 18.8178 13.0914 16.756 14.8332C14.6941 16.5751 13.2797 18.9612 12.7412 21.606C12.2028 24.2509 12.5717 27.0001 13.7884 29.4094C15.0051 31.8187 16.9986 33.7475 19.4467 34.8841C21.8949 36.0208 24.6547 36.2988 27.2804 35.6735C29.9061 35.0481 32.2442 33.5558 33.9171 31.4376C34.7395 30.3963 35.3775 29.2337 35.8137 28" stroke="white" stroke-width="4" stroke-linecap="round"/>
<circle id="Ellipse 49" cx="35.5" cy="20" r="2" fill="white"/>
</g>
</svg>
