<svg width="14" height="16" viewBox="0 0 14 16" fill="none" xmlns="http://www.w3.org/2000/svg">
<mask id="path-1-inside-1_757_374" fill="white">
<rect y="4" width="6" height="8" rx="1"/>
</mask>
<rect y="4" width="6" height="8" rx="1" stroke="black" stroke-width="3" mask="url(#path-1-inside-1_757_374)"/>
<path d="M2 0.5C2 0.223858 2.22386 0 2.5 0H3.5C3.77614 0 4 0.223858 4 0.5V5H2V0.5Z" fill="black"/>
<path d="M2 11H4V15.5C4 15.7761 3.77614 16 3.5 16H2.5C2.22386 16 2 15.7761 2 15.5V11Z" fill="black"/>
<mask id="path-4-inside-2_757_374" fill="white">
<rect x="8" y="2" width="6" height="12" rx="1"/>
</mask>
<rect x="8" y="2" width="6" height="12" rx="1" stroke="black" stroke-width="3" mask="url(#path-4-inside-2_757_374)"/>
<path d="M10 0.5C10 0.223858 10.2239 0 10.5 0H11.5C11.7761 0 12 0.223858 12 0.5V2H10V0.5Z" fill="black"/>
<path d="M10 14H12V15.5C12 15.7761 11.7761 16 11.5 16H10.5C10.2239 16 10 15.7761 10 15.5V14Z" fill="black"/>
</svg>
